<svg width="36" height="39" viewBox="0 0 36 39" fill="none" xmlns="http://www.w3.org/2000/svg">
    <path fill-rule="evenodd" clip-rule="evenodd" d="M0 2.12451C0 0.951174 1.17732 0 2.63258 0H33.3674C34.8214 0 36 0.954365 36 2.12451V36.8755C36 38.0488 34.8227 39 33.3674 39H2.63258C1.17865 39 0 38.0456 0 36.8755V2.12451Z" fill="#5B68C0"/>
    <path fill-rule="evenodd" clip-rule="evenodd" d="M4.39026 0H9.65855V39H4.39026V0Z" fill="#FFAF40"/>
    <path fill-rule="evenodd" clip-rule="evenodd" d="M14.0488 25.4598C14.0488 24.6772 14.8334 23.9752 15.7987 23.892L21.5122 23.4L27.2258 23.892C28.1922 23.9753 28.9757 24.6719 28.9757 25.4598V27.6546H14.0488V25.4598Z" fill="#22BA8E"/>
    <path fill-rule="evenodd" clip-rule="evenodd" d="M18.878 21.2683C17.5564 20.2742 16.6829 18.6642 16.6829 17.3153C16.6829 15.1931 18.845 13.4727 21.5121 13.4727C24.1793 13.4727 26.3414 15.1931 26.3414 17.3153C26.3414 18.6642 25.4678 20.2742 24.1463 21.2683V23.603C24.1463 23.603 22.3606 24.1091 21.5121 24.1091C20.6637 24.1091 18.878 23.603 18.878 23.603V21.2683Z" fill="#FFDD95"/>
</svg>
