<svg width="40" height="40" viewBox="0 0 40 40" fill="none" xmlns="http://www.w3.org/2000/svg">
    <circle cx="20" cy="20" r="20" fill="#90A1DC"/>
    <path d="M10.7812 13.5156H31.0938C31.5252 13.5156 31.875 13.1659 31.875 12.7344V10.7812C31.875 10.3498 31.5252 10 31.0938 10H10.7812C10.3498 10 10 10.3498 10 10.7812V12.7344C10 13.1659 10.3498 13.5156 10.7812 13.5156ZM10.7812 21.3281H31.0938C31.5252 21.3281 31.875 20.9784 31.875 20.5469V18.5938C31.875 18.1623 31.5252 17.8125 31.0938 17.8125H10.7812C10.3498 17.8125 10 18.1623 10 18.5938V20.5469C10 20.9784 10.3498 21.3281 10.7812 21.3281ZM10.7812 29.1406H31.0938C31.5252 29.1406 31.875 28.7909 31.875 28.3594V26.4062C31.875 25.9748 31.5252 25.625 31.0938 25.625H10.7812C10.3498 25.625 10 25.9748 10 26.4062V28.3594C10 28.7909 10.3498 29.1406 10.7812 29.1406Z" fill="black"/>
</svg>
