<svg width="41" height="37" viewBox="0 0 41 37" fill="none" xmlns="http://www.w3.org/2000/svg">
    <path fill-rule="evenodd" clip-rule="evenodd" d="M17.1021 0C7.43122 1.27211 0 8.86596 0 18.0438C0 28.1126 8.94413 36.2749 19.9773 36.2749C28.6492 36.2749 36.0305 31.2325 38.7928 24.1851C35.822 26.4485 31.9981 27.8105 27.8255 27.8105C18.3685 27.8105 10.7021 20.8141 10.7021 12.1837C10.7021 7.2578 13.1996 2.8642 17.1021 0Z" fill="#5B68C0"/>
    <path d="M25.6851 3.33182L29.2524 6.58739" stroke="#5EA7FF" stroke-width="2.2403" stroke-linecap="round"/>
    <path d="M25.5021 6.48029L29.0694 3.22472" stroke="#5EA7FF" stroke-width="2.2403" stroke-linecap="round"/>
    <path d="M17.8368 14.4008L21.4042 17.6563" stroke="#5EA7FF" stroke-width="2.2403" stroke-linecap="round"/>
    <path d="M17.6538 17.5492L21.2212 14.2936" stroke="#5EA7FF" stroke-width="2.2403" stroke-linecap="round"/>
    <path d="M35.6737 10.4941L39.2411 13.7496" stroke="#5EA7FF" stroke-width="2.2403" stroke-linecap="round"/>
    <path d="M35.4907 13.6425L39.0581 10.387" stroke="#5EA7FF" stroke-width="2.2403" stroke-linecap="round"/>
</svg>
