<svg width="129" height="100" viewBox="0 0 129 100" fill="none" xmlns="http://www.w3.org/2000/svg">
    <g clip-path="url(#clip0_306_299)">
        <path d="M34.4994 25.0507H18.4629V25.3388H34.4994V25.0507Z" fill="#F2F2F2"/>
        <path d="M23.0445 22.4579H22.8154V25.1227H23.0445V22.4579Z" fill="#F2F2F2"/>
        <path d="M30.0318 22.4579H29.8027V25.1227H30.0318V22.4579Z" fill="#F2F2F2"/>
        <path d="M29.0013 10.6461H12.9648V10.9342H29.0013V10.6461Z" fill="#F2F2F2"/>
        <path d="M24.6485 10.8622H24.4194V13.527H24.6485V10.8622Z" fill="#F2F2F2"/>
        <path d="M17.6612 10.8622H17.4321V13.527H17.6612V10.8622Z" fill="#F2F2F2"/>
        <path d="M54.4305 30.8126H38.394V31.1007H54.4305V30.8126Z" fill="#F2F2F2"/>
        <path d="M42.9757 28.2197H42.7466V30.8846H42.9757V28.2197Z" fill="#F2F2F2"/>
        <path d="M49.963 28.2197H49.7339V30.8846H49.963V28.2197Z" fill="#F2F2F2"/>
        <path d="M48.932 16.408H32.8955V16.6961H48.932V16.408Z" fill="#F2F2F2"/>
        <path d="M44.5792 16.624H44.3501V19.2889H44.5792V16.624Z" fill="#F2F2F2"/>
        <path d="M37.5919 16.624H37.3628V19.2889H37.5919V16.624Z" fill="#F2F2F2"/>
        <path d="M48.1302 79.7883H32.0938V80.0764H48.1302V79.7883Z" fill="#F2F2F2"/>
        <path d="M36.6759 77.1954H36.4468V79.8603H36.6759V77.1954Z" fill="#F2F2F2"/>
        <path d="M43.6632 77.1954H43.4341V79.8603H43.6632V77.1954Z" fill="#F2F2F2"/>
        <path d="M42.6322 65.3837H26.5957V65.6718H42.6322V65.3837Z" fill="#F2F2F2"/>
        <path d="M38.2794 65.5997H38.0503V68.2646H38.2794V65.5997Z" fill="#F2F2F2"/>
        <path d="M31.2921 65.5997H31.063V68.2646H31.2921V65.5997Z" fill="#F2F2F2"/>
        <path d="M40.7992 48.6743H24.7627V48.9624H40.7992V48.6743Z" fill="#F2F2F2"/>
        <path d="M29.3448 46.0815H29.1157V48.7463H29.3448V46.0815Z" fill="#F2F2F2"/>
        <path d="M36.3321 46.0815H36.103V48.7463H36.3321V46.0815Z" fill="#F2F2F2"/>
        <path d="M35.3011 34.2697H19.2646V34.5578H35.3011V34.2697Z" fill="#F2F2F2"/>
        <path d="M30.9483 34.4858H30.7192V37.1506H30.9483V34.4858Z" fill="#F2F2F2"/>
        <path d="M23.961 34.4858H23.7319V37.1506H23.961V34.4858Z" fill="#F2F2F2"/>
        <path d="M29.2303 70.5693H13.1938V70.8574H29.2303V70.5693Z" fill="#F2F2F2"/>
        <path d="M17.7755 67.9764H17.5464V70.6413H17.7755V67.9764Z" fill="#F2F2F2"/>
        <path d="M24.7628 67.9764H24.5337V70.6413H24.7628V67.9764Z" fill="#F2F2F2"/>
        <path d="M23.7318 56.1647H7.69531V56.4528H23.7318V56.1647Z" fill="#F2F2F2"/>
        <path d="M19.379 56.3807H19.1499V59.0456H19.379V56.3807Z" fill="#F2F2F2"/>
        <path d="M12.3917 56.3807H12.1626V59.0456H12.3917V56.3807Z" fill="#F2F2F2"/>
        <path d="M109.069 25.0507H93.0322V25.3388H109.069V25.0507Z" fill="#F2F2F2"/>
        <path d="M97.6143 22.4579H97.3853V25.1227H97.6143V22.4579Z" fill="#F2F2F2"/>
        <path d="M104.602 22.4579H104.373V25.1227H104.602V22.4579Z" fill="#F2F2F2"/>
        <path d="M103.571 10.6461H87.5342V10.9342H103.571V10.6461Z" fill="#F2F2F2"/>
        <path d="M99.2179 10.8622H98.9888V13.527H99.2179V10.8622Z" fill="#F2F2F2"/>
        <path d="M92.2306 10.8622H92.0015V13.527H92.2306V10.8622Z" fill="#F2F2F2"/>
        <path d="M129 30.8126H112.963V31.1007H129V30.8126Z" fill="#F2F2F2"/>
        <path d="M117.545 28.2197H117.316V30.8846H117.545V28.2197Z" fill="#F2F2F2"/>
        <path d="M124.533 28.2197H124.304V30.8846H124.533V28.2197Z" fill="#F2F2F2"/>
        <path d="M123.502 16.408H107.465V16.6961H123.502V16.408Z" fill="#F2F2F2"/>
        <path d="M119.149 16.624H118.92V19.2889H119.149V16.624Z" fill="#F2F2F2"/>
        <path d="M112.162 16.624H111.933V19.2889H112.162V16.624Z" fill="#F2F2F2"/>
        <path d="M122.7 79.7883H106.664V80.0764H122.7V79.7883Z" fill="#F2F2F2"/>
        <path d="M111.245 77.1954H111.016V79.8603H111.245V77.1954Z" fill="#F2F2F2"/>
        <path d="M118.233 77.1954H118.003V79.8603H118.233V77.1954Z" fill="#F2F2F2"/>
        <path d="M117.202 65.3837H101.165V65.6718H117.202V65.3837Z" fill="#F2F2F2"/>
        <path d="M112.849 65.5997H112.62V68.2646H112.849V65.5997Z" fill="#F2F2F2"/>
        <path d="M105.861 65.5997H105.632V68.2646H105.861V65.5997Z" fill="#F2F2F2"/>
        <path d="M115.369 48.6743H99.3325V48.9624H115.369V48.6743Z" fill="#F2F2F2"/>
        <path d="M103.914 46.0815H103.685V48.7463H103.914V46.0815Z" fill="#F2F2F2"/>
        <path d="M110.901 46.0815H110.672V48.7463H110.901V46.0815Z" fill="#F2F2F2"/>
        <path d="M109.871 34.2697H93.8345V34.5578H109.871V34.2697Z" fill="#F2F2F2"/>
        <path d="M105.518 34.4858H105.289V37.1506H105.518V34.4858Z" fill="#F2F2F2"/>
        <path d="M98.5309 34.4858H98.3018V37.1506H98.5309V34.4858Z" fill="#F2F2F2"/>
        <path d="M103.8 70.5693H87.7632V70.8574H103.8V70.5693Z" fill="#F2F2F2"/>
        <path d="M92.3453 67.9764H92.1162V70.6413H92.3453V67.9764Z" fill="#F2F2F2"/>
        <path d="M99.3326 67.9764H99.1035V70.6413H99.3326V67.9764Z" fill="#F2F2F2"/>
        <path d="M98.3016 56.1647H82.2651V56.4528H98.3016V56.1647Z" fill="#F2F2F2"/>
        <path d="M93.9488 56.3807H93.7197V59.0456H93.9488V56.3807Z" fill="#F2F2F2"/>
        <path d="M86.9615 56.3807H86.7324V59.0456H86.9615V56.3807Z" fill="#F2F2F2"/>
        <path d="M63.852 0H41.5728V39.7567H63.852V0Z" fill="#3F3D56"/>
        <path d="M92.4311 47.6793H70.1519V87.436H92.4311V47.6793Z" fill="#3F3D56"/>
        <path d="M92.4311 0H70.1519V39.7567H92.4311V0Z" fill="#3F3D56"/>
        <path d="M63.852 47.6793H41.5728V87.436H63.852V47.6793Z" fill="#3F3D56"/>
        <path d="M121.297 87.3108H10.9307V87.6336H121.297V87.3108Z" fill="#2F2E41"/>
        <path d="M13.0505 85.1312H11.7905V98.5275C11.7905 98.5275 19.9233 101.841 27.827 98.5275V85.1312H13.0505Z" fill="#3F3D56"/>
        <path d="M19.6942 86.7158C24.0593 86.7158 27.5979 86.0386 27.5979 85.2033C27.5979 84.368 24.0593 83.6908 19.6942 83.6908C15.3291 83.6908 11.7905 84.368 11.7905 85.2033C11.7905 86.0386 15.3291 86.7158 19.6942 86.7158Z" fill="#3F3D56"/>
        <path opacity="0.1" d="M19.6942 86.7158C24.0593 86.7158 27.5979 86.0386 27.5979 85.2033C27.5979 84.368 24.0593 83.6908 19.6942 83.6908C15.3291 83.6908 11.7905 84.368 11.7905 85.2033C11.7905 86.0386 15.3291 86.7158 19.6942 86.7158Z" fill="black"/>
        <path d="M28.8817 69.1257C26.8878 78.3943 20.0585 84.1346 20.0585 84.1346C20.0585 84.1346 16.4618 74.8475 18.4556 65.5789C20.4495 56.3103 27.2788 50.5701 27.2788 50.5701C27.2788 50.5701 30.8755 59.8572 28.8817 69.1257Z" fill="#3F3D56"/>
        <path d="M10.7437 69.1257C12.7376 78.3943 19.5669 84.1346 19.5669 84.1346C19.5669 84.1346 23.1636 74.8475 21.1698 65.5789C19.1759 56.3103 12.3466 50.5701 12.3466 50.5701C12.3466 50.5701 8.74987 59.8572 10.7437 69.1257Z" fill="#6179CD"/>
        <path d="M13.6733 67.1338C19.1445 73.8313 19.8127 84.127 19.8127 84.127C19.8127 84.127 11.6105 83.5638 6.13939 76.8663C0.668262 70.1687 0 59.873 0 59.873C0 59.873 8.2022 60.4362 13.6733 67.1338Z" fill="#3F3D56"/>
        <path d="M25.9519 67.1338C20.4808 73.8313 19.8125 84.127 19.8125 84.127C19.8125 84.127 28.0147 83.5638 33.4858 76.8663C38.957 70.1687 39.6252 59.873 39.6252 59.873C39.6252 59.873 31.423 60.4362 25.9519 67.1338Z" fill="#3F3D56"/>
        <path d="M19.8091 53.7292C21.2008 53.7292 22.3291 52.3104 22.3291 50.5602C22.3291 48.81 21.2008 47.3912 19.8091 47.3912C18.4173 47.3912 17.2891 48.81 17.2891 50.5602C17.2891 52.3104 18.4173 53.7292 19.8091 53.7292Z" fill="#6179CD"/>
        <path d="M50.393 21.7509C50.5827 21.7509 50.7366 21.5575 50.7366 21.3188C50.7366 21.0801 50.5827 20.8867 50.393 20.8867C50.2032 20.8867 50.0493 21.0801 50.0493 21.3188C50.0493 21.5575 50.2032 21.7509 50.393 21.7509Z" fill="white"/>
        <path d="M48.7889 16.1332C51.0031 16.1332 52.798 13.8759 52.798 11.0915C52.798 8.30713 51.0031 6.04993 48.7889 6.04993C46.5747 6.04993 44.7798 8.30713 44.7798 11.0915C44.7798 13.8759 46.5747 16.1332 48.7889 16.1332Z" fill="white"/>
        <path d="M55.2039 18.1498C55.2672 18.1498 55.3184 18.0853 55.3184 18.0057C55.3184 17.9262 55.2672 17.8617 55.2039 17.8617C55.1406 17.8617 55.0894 17.9262 55.0894 18.0057C55.0894 18.0853 55.1406 18.1498 55.2039 18.1498Z" fill="white"/>
        <path d="M75.3641 25.3521C75.4273 25.3521 75.4786 25.2876 75.4786 25.2081C75.4786 25.1285 75.4273 25.064 75.3641 25.064C75.3008 25.064 75.2495 25.1285 75.2495 25.2081C75.2495 25.2876 75.3008 25.3521 75.3641 25.3521Z" fill="white"/>
        <path d="M74.1038 68.4219C74.1671 68.4219 74.2184 68.3574 74.2184 68.2778C74.2184 68.1983 74.1671 68.1338 74.1038 68.1338C74.0405 68.1338 73.9893 68.1983 73.9893 68.2778C73.9893 68.3574 74.0405 68.4219 74.1038 68.4219Z" fill="white"/>
        <path d="M49.9344 78.3611C49.9976 78.3611 50.0489 78.2966 50.0489 78.217C50.0489 78.1375 49.9976 78.073 49.9344 78.073C49.8711 78.073 49.8198 78.1375 49.8198 78.217C49.8198 78.2966 49.8711 78.3611 49.9344 78.3611Z" fill="white"/>
        <path d="M83.7259 30.3937C83.7891 30.3937 83.8404 30.3293 83.8404 30.2497C83.8404 30.1701 83.7891 30.1057 83.7259 30.1057C83.6626 30.1057 83.6113 30.1701 83.6113 30.2497C83.6113 30.3293 83.6626 30.3937 83.7259 30.3937Z" fill="white"/>
        <path d="M82.5804 18.2938C82.6436 18.2938 82.6949 18.2293 82.6949 18.1498C82.6949 18.0702 82.6436 18.0057 82.5804 18.0057C82.5171 18.0057 82.4658 18.0702 82.4658 18.1498C82.4658 18.2293 82.5171 18.2938 82.5804 18.2938Z" fill="white"/>
        <path d="M78.6858 57.1863C78.7491 57.1863 78.8004 57.1218 78.8004 57.0422C78.8004 56.9627 78.7491 56.8982 78.6858 56.8982C78.6226 56.8982 78.5713 56.9627 78.5713 57.0422C78.5713 57.1218 78.6226 57.1863 78.6858 57.1863Z" fill="white"/>
        <path d="M72.5003 35.5794C72.5636 35.5794 72.6148 35.5149 72.6148 35.4354C72.6148 35.3558 72.5636 35.2913 72.5003 35.2913C72.437 35.2913 72.3857 35.3558 72.3857 35.4354C72.3857 35.5149 72.437 35.5794 72.5003 35.5794Z" fill="white"/>
        <path d="M73.4168 15.2689C73.4801 15.2689 73.5313 15.2044 73.5313 15.1248C73.5313 15.0453 73.4801 14.9808 73.4168 14.9808C73.3535 14.9808 73.3022 15.0453 73.3022 15.1248C73.3022 15.2044 73.3535 15.2689 73.4168 15.2689Z" fill="white"/>
        <path d="M83.8401 7.05823C83.9034 7.05823 83.9547 6.99374 83.9547 6.91419C83.9547 6.83463 83.9034 6.77014 83.8401 6.77014C83.7769 6.77014 83.7256 6.83463 83.7256 6.91419C83.7256 6.99374 83.7769 7.05823 83.8401 7.05823Z" fill="white"/>
        <path d="M50.1639 65.3969C50.2271 65.3969 50.2784 65.3324 50.2784 65.2529C50.2784 65.1733 50.2271 65.1088 50.1639 65.1088C50.1006 65.1088 50.0493 65.1733 50.0493 65.2529C50.0493 65.3324 50.1006 65.3969 50.1639 65.3969Z" fill="white"/>
        <path d="M60.0144 76.3444C60.0777 76.3444 60.129 76.2799 60.129 76.2004C60.129 76.1208 60.0777 76.0563 60.0144 76.0563C59.9512 76.0563 59.8999 76.1208 59.8999 76.2004C59.8999 76.2799 59.9512 76.3444 60.0144 76.3444Z" fill="white"/>
        <path d="M47.4144 54.5935C47.4776 54.5935 47.5289 54.529 47.5289 54.4494C47.5289 54.3699 47.4776 54.3054 47.4144 54.3054C47.3511 54.3054 47.2998 54.3699 47.2998 54.4494C47.2998 54.529 47.3511 54.5935 47.4144 54.5935Z" fill="white"/>
        <path d="M50.2781 35.5794C50.3414 35.5794 50.3927 35.5149 50.3927 35.4354C50.3927 35.3558 50.3414 35.2913 50.2781 35.2913C50.2149 35.2913 50.1636 35.3558 50.1636 35.4354C50.1636 35.5149 50.2149 35.5794 50.2781 35.5794Z" fill="white"/>
        <path opacity="0.1" d="M50.2783 35.5794L63.8521 28.223V30.1705L50.2783 35.5794Z" fill="white"/>
        <path opacity="0.1" d="M92.4311 12.7351V18.7807L70.1519 27.6597V24.809L92.4311 12.7351Z" fill="white"/>
        <path opacity="0.1" d="M56.9263 56.8953L63.8517 52.0972V52.7641C59.9789 55.1221 57.0614 56.8176 56.9263 56.8953Z" fill="white"/>
        <path opacity="0.1" d="M70.2297 47.6793H71.9766C71.3706 48.0725 70.7624 48.4629 70.1519 48.8504V47.734L70.2297 47.6793Z" fill="white"/>
        <path opacity="0.1" d="M83.955 38.1722C83.9023 38.554 83.5025 39.0956 82.837 39.7567H81.6675L83.955 38.1722Z" fill="white"/>
        <path opacity="0.1" d="M92.4313 64.0083V65.0253C86.4841 68.7575 81.0511 71.9136 80.8667 72.0202L92.4313 64.0083Z" fill="white"/>
        <path d="M79.0291 65.4239C79.029 65.1382 78.9639 64.8585 78.8413 64.6178C78.7188 64.3772 78.544 64.1858 78.3377 64.0661L78.3744 63.4778H75.8149L76.1125 67.2952H78.1363L78.1632 66.8632C78.4125 66.7744 78.6318 66.5859 78.7881 66.3261C78.9444 66.0664 79.029 65.7496 79.0291 65.4239ZM78.1775 66.6354L78.3192 64.3625C78.4421 64.5151 78.537 64.6995 78.5973 64.9029C78.6576 65.1064 78.6819 65.3239 78.6684 65.5404C78.6549 65.7569 78.6039 65.967 78.5192 66.1561C78.4344 66.3453 78.3177 66.5088 78.1775 66.6354Z" fill="#6179CD"/>
        <path d="M76.27 62.3168C76.27 62.3168 79.2963 65.0352 78.2875 66.1225C77.2788 67.2099 75.2612 62.8605 75.2612 62.8605L76.27 62.3168Z" fill="#FFB9B9"/>
        <path d="M62.291 66.485C62.291 66.485 62.8675 75.5462 63.0116 76.8148C63.1557 78.0833 63.2998 89.5005 63.588 90.769C63.8762 92.0376 64.1645 95.1184 64.1645 95.1184H65.8938C65.8938 95.1184 65.7497 89.5005 66.182 87.3258C66.6143 85.1511 66.4702 79.1707 66.4702 79.1707C66.4702 79.1707 67.3349 68.4785 66.9026 67.0287C66.4702 65.5789 62.291 66.485 62.291 66.485Z" fill="#FFB9B9"/>
        <path d="M64.5969 94.5747C64.5969 94.5747 63.8763 95.1184 63.8763 95.4808C63.8763 95.8433 64.0205 96.7494 63.8763 97.1118C63.7322 97.4743 62.7235 98.9241 63.2999 99.2865C63.8763 99.649 66.4703 99.2865 66.4703 99.2865C66.4703 99.2865 66.3262 96.7494 66.1821 96.5682C66.038 96.3869 66.3262 94.5747 66.3262 94.5747H64.5969Z" fill="#2F2E41"/>
        <path d="M73.3077 66.2629C73.3077 66.2629 73.4907 75.3502 73.4533 76.6308C73.4159 77.9114 74.2256 89.2844 74.0448 90.584C73.8641 91.8836 73.8346 94.9855 73.8346 94.9855L72.1148 95.2137C72.1148 95.2137 71.7892 89.6078 71.1778 87.5022C70.5663 85.3966 70.2104 79.4302 70.2104 79.4302C70.2104 79.4302 68.4581 68.9112 68.767 67.4123C69.0759 65.9135 73.3077 66.2629 73.3077 66.2629Z" fill="#FFB9B9"/>
        <path d="M73.3594 94.5018C73.3594 94.5018 74.1214 94.9474 74.1516 95.3078C74.1819 95.6683 74.1142 96.5884 74.2878 96.9298C74.4613 97.2713 75.5856 98.5799 75.0425 99.0164C74.4995 99.453 71.8896 99.4349 71.8896 99.4349C71.8896 99.4349 71.8212 96.8928 71.9494 96.6935C72.0775 96.4943 71.6396 94.7301 71.6396 94.7301L73.3594 94.5018Z" fill="#2F2E41"/>
        <path d="M64.3089 52.8932C64.3089 52.8932 63.156 53.0744 62.7236 56.1552C62.2913 59.236 60.7061 67.0287 62.0031 67.5723C63.3001 68.116 67.1911 69.2034 67.3352 68.8409C67.4793 68.4785 67.7675 67.5723 67.7675 67.5723C67.7675 67.5723 67.3352 69.2034 67.9116 69.2034C68.4881 69.2034 74.1084 68.116 73.9643 67.5723C73.8202 67.0287 73.5319 63.0417 73.5319 63.0417C73.5319 63.0417 72.6673 56.3364 71.8026 55.2491C71.5524 54.947 71.3581 54.5793 71.2336 54.1721C71.109 53.765 71.0573 53.3283 71.0821 52.8932H64.3089Z" fill="#2F2E41"/>
        <path d="M62.147 51.4434C62.147 51.4434 64.0205 50.8997 64.3087 51.6246C64.5969 52.3495 63.5881 53.4369 63.1558 53.4369C62.7235 53.4369 62.0029 52.8932 62.0029 52.8932L62.147 51.4434Z" fill="#FFB9B9"/>
        <path d="M68.7795 35.8016C70.2122 35.8016 71.3735 34.3411 71.3735 32.5396C71.3735 30.738 70.2122 29.2775 68.7795 29.2775C67.3469 29.2775 66.1855 30.738 66.1855 32.5396C66.1855 34.3411 67.3469 35.8016 68.7795 35.8016Z" fill="#FFB9B9"/>
        <path d="M67.2123 34.7746C67.2123 34.7746 66.9026 37.6704 66.6144 37.6704C66.3262 37.6704 68.776 39.3014 68.776 39.3014L70.6495 38.939L71.2259 37.8516C71.2259 37.8516 70.332 36.1055 70.332 34.6557C70.332 33.2059 67.2123 34.7746 67.2123 34.7746Z" fill="#FFB9B9"/>
        <path d="M67.7674 37.6704C67.7674 37.6704 67.3351 37.3079 67.191 37.3079H66.0381C65.894 37.3079 64.0206 37.8516 64.0206 37.8516L62.8677 46.0067C62.8677 46.0067 64.8852 50.1748 63.4441 53.4369C63.4441 53.4369 63.8764 53.0744 65.894 53.2556C67.9115 53.4369 71.5143 53.9805 71.6584 53.9805C71.8025 53.9805 71.8025 52.5307 71.6584 52.1683C71.5143 51.8058 71.8025 51.9871 71.8025 51.0809C71.8025 50.1748 72.2349 48.5438 72.2349 48.5438L74.2524 39.3014C74.2524 39.3014 71.6584 37.4891 71.2261 37.6704C70.7938 37.8516 69.4968 38.3953 69.2085 38.214C68.9203 38.0328 67.7674 37.6704 67.7674 37.6704Z" fill="#FF6584"/>
        <path d="M64.4529 38.0328L64.0205 37.8516C64.0205 37.8516 63.1559 37.6704 62.1471 38.7577C61.1383 39.8451 57.3914 43.1071 57.3914 43.1071C57.3914 43.1071 55.9503 44.5569 56.3827 46.1879C56.815 47.8189 57.5356 51.8059 59.6972 51.6246C59.6972 51.6246 60.9942 53.7993 61.7148 53.4369C62.4353 53.0744 63.0118 51.6246 62.5794 51.4434C62.1471 51.2622 60.9942 49.45 60.9942 49.45L62.4353 46.0067H62.8676L64.4529 44.9194L64.4529 38.0328Z" fill="#FF6584"/>
        <path d="M73.0997 39.1202L74.2526 39.3014C74.2526 39.3014 75.2613 39.8451 75.1172 42.201C74.9731 44.5569 75.9819 55.2491 75.5496 56.5177C75.5496 56.5177 76.9907 62.6793 76.7024 62.8605C76.4142 63.0418 74.6849 64.1291 74.829 63.4042C74.9731 62.6793 73.2438 57.605 73.2438 57.605C73.2438 57.605 71.2262 54.8867 72.0909 51.081V48.0002L73.0997 39.1202Z" fill="#FF6584"/>
        <path d="M75.505 35.4685C75.1835 34.8968 74.788 34.3971 74.4487 33.8418C73.6665 32.5616 73.3958 30.8557 72.3461 29.8739C71.3074 28.9025 69.659 27.9463 68.3591 28.0229C66.6461 28.1239 65.2871 29.7951 64.1062 31.359C63.2037 32.554 62.3012 33.7491 61.3988 34.9442C60.7459 35.8087 60.0689 36.7266 59.8336 37.8815C59.6075 38.9916 59.8282 40.1841 60.2422 41.2048C60.6725 42.2403 61.2759 43.1462 62.0112 43.8604C62.9175 42.2911 64.1871 40.1242 64.1871 40.1242L64.4827 45.514C66.0181 46.1539 67.6674 46.2797 69.2854 46.1382L69.7647 43.9284L70.2677 46.0159C72.2013 45.6935 74.1438 44.8539 75.3407 42.9565C76.6641 40.8587 76.7343 37.6549 75.505 35.4685Z" fill="#2F2E41"/>
        <path d="M64.7077 34.9243C64.4403 33.2358 64.7292 31.4863 65.6274 30.1466C67.2868 27.6715 70.3934 27.5325 72.5661 29.8361C73.4331 30.7451 74.0552 31.969 74.3472 33.3402C74.0976 31.8224 73.4457 30.4562 72.4981 29.4652C70.3254 27.1616 67.2188 27.3006 65.5593 29.7757C64.5951 31.2139 64.333 33.1241 64.7077 34.9243Z" fill="#2F2E41"/>
        <path d="M59.6027 42.8893C59.3353 41.2008 59.6242 39.4514 60.5224 38.1116C62.1819 35.6365 65.2884 35.4975 67.4612 37.8011C68.3281 38.7101 68.9502 39.9341 69.2422 41.3052C68.9927 39.7874 68.3407 38.4212 67.3931 37.4302C65.2204 35.1266 62.1138 35.2656 60.4543 37.7407C59.4901 39.1789 59.228 41.0891 59.6027 42.8893Z" fill="#2F2E41"/>
        <path d="M71.1802 34.0188C72.5427 33.8502 73.8987 34.3837 74.8706 35.6395C76.6661 37.9595 76.4707 41.8609 74.4341 44.3535C73.6296 45.3491 72.5998 46.0073 71.4861 46.2379C72.7117 46.0748 73.857 45.3932 74.7343 44.3048C76.7709 41.8122 76.9663 37.9108 75.1708 35.5908C74.1275 34.2427 72.6416 33.7269 71.1802 34.0188Z" fill="#2F2E41"/>
        <path opacity="0.1" d="M77.6248 57.1006C77.4923 57.0619 77.3535 57.0746 77.2269 57.1372C77.1003 57.1998 76.9917 57.3092 76.9156 57.451C76.8619 57.5605 76.8232 57.6806 76.8011 57.8062C76.7382 58.1501 76.7508 58.509 76.8375 58.8446C76.9242 59.1802 77.0818 59.4799 77.2935 59.7116C77.4045 59.8143 77.5097 59.9267 77.6084 60.0477C77.6998 60.1869 77.7632 60.3516 77.7934 60.5281C77.8236 60.7045 77.8196 60.8875 77.7818 61.0616C77.7025 61.4103 77.5369 61.7182 77.3091 61.9406C77.2616 61.9812 77.2219 62.0347 77.1929 62.097C77.1154 62.3056 77.3152 62.504 77.3661 62.7251" fill="white"/>
    </g>
    <defs>
        <clipPath id="clip0_306_299">
            <rect width="129" height="100" fill="white"/>
        </clipPath>
    </defs>
</svg>
