<svg width="117" height="115" viewBox="0 0 117 115" fill="none" xmlns="http://www.w3.org/2000/svg">
    <g clip-path="url(#clip0_304_107)">
        <path d="M17.1697 98.0176C24.5541 93.41 39.8191 85.6802 59.0875 85.6802C78.3559 85.6802 93.6209 93.41 101.005 98.0176C108.194 102.503 113.976 107.792 116.699 112.108C117.692 110.481 116.235 81.546 112.203 70.0708C106.291 53.2071 96.3777 38.8179 83.7031 28.7055C71.0285 18.5931 56.1567 13.2073 40.9505 13.2225C35.5418 13.2047 30.1839 14.4784 25.1869 16.9698C20.1899 19.4612 15.6531 23.1208 11.839 27.7369C11.677 27.9319 11.5166 28.1282 11.3576 28.3259C2.82384 38.9368 -1.16083 53.6994 0.293988 68.3635C1.32975 78.8038 3.88242 100.641 7.48922 105.271C10.5434 102.534 13.7814 100.108 17.1697 98.0176Z" fill="#F2F2F2"/>
        <path d="M72.4835 26.8241C78.5786 26.8241 83.5196 20.8767 83.5196 13.5403C83.5196 6.20388 78.5786 0.256531 72.4835 0.256531C66.3885 0.256531 61.4475 6.20388 61.4475 13.5403C61.4475 20.8767 66.3885 26.8241 72.4835 26.8241Z" fill="#6179CD"/>
        <path d="M59.9455 92.8412C66.7211 92.8412 72.2137 91.462 72.2137 89.7606C72.2137 88.0592 66.7211 86.6799 59.9455 86.6799C53.1699 86.6799 47.6772 88.0592 47.6772 89.7606C47.6772 91.462 53.1699 92.8412 59.9455 92.8412Z" fill="#F2F2F2"/>
        <path d="M72.4086 20.1584C61.1624 20.1572 52.353 17.7031 52.3533 14.5715C52.3534 12.6939 55.475 11.0191 60.9177 9.97647C60.9371 9.97256 60.9569 9.97328 60.9761 9.9786C60.9952 9.98391 61.0133 9.99372 61.0293 10.0074C61.0453 10.0212 61.0589 10.0386 61.0694 10.0586C61.0798 10.0787 61.0868 10.101 61.0901 10.1244C61.0933 10.1477 61.0927 10.1716 61.0883 10.1946C61.0839 10.2177 61.0757 10.2395 61.0643 10.2587C61.0529 10.278 61.0385 10.2944 61.0218 10.3069C61.0051 10.3194 60.9866 10.3279 60.9672 10.3318L60.9666 10.3319L60.9647 10.3323C55.8378 11.3145 52.6527 12.9389 52.6526 14.5715C52.6524 17.4035 61.6995 19.7969 72.4086 19.7981C83.1177 19.7992 92.1651 17.4077 92.1653 14.5758C92.1655 12.9363 88.9603 11.3073 83.8007 10.3246C83.7812 10.321 83.7625 10.3129 83.7457 10.3007C83.7288 10.2884 83.7141 10.2723 83.7025 10.2532C83.6908 10.2342 83.6824 10.2125 83.6777 10.1895C83.673 10.1665 83.6721 10.1426 83.6751 10.1192C83.678 10.0957 83.6848 10.0733 83.695 10.053C83.7052 10.0327 83.7186 10.0151 83.7345 10.0011C83.7504 9.9871 83.7684 9.977 83.7875 9.97138C83.8067 9.96577 83.8265 9.96475 83.846 9.96838L83.8464 9.96847L83.8475 9.96866C89.324 11.0117 92.4648 12.691 92.4647 14.5758C92.4644 17.7075 83.6547 20.1596 72.4086 20.1584Z" fill="#3F3D56"/>
        <path d="M73.2101 18.0125C63.5191 24.881 54.8937 28.1475 53.5736 25.4489C52.7822 23.831 54.7658 20.481 59.016 16.2581C59.0311 16.2429 59.0485 16.2314 59.0672 16.2243C59.086 16.2171 59.1057 16.2145 59.1253 16.2166C59.1449 16.2186 59.1639 16.2253 59.1813 16.2362C59.1988 16.2472 59.2143 16.2621 59.2269 16.2802C59.2395 16.2983 59.2491 16.3193 59.255 16.3418C59.2609 16.3644 59.2631 16.3881 59.2614 16.4117C59.2597 16.4353 59.2541 16.4582 59.245 16.4792C59.236 16.5002 59.2235 16.5188 59.2085 16.534L59.2081 16.5345L59.2066 16.5359C55.2029 20.514 53.1433 23.8592 53.8316 25.2661C55.0254 27.7064 63.83 24.2425 73.0582 17.702C82.2863 11.1615 89.074 3.57434 87.8802 1.13402C87.189 -0.278758 83.7405 0.275371 78.8803 2.5803C78.862 2.58909 78.8425 2.59346 78.8229 2.59317C78.8032 2.59288 78.7838 2.58793 78.7657 2.57861C78.7477 2.56929 78.7313 2.55578 78.7176 2.53884C78.7038 2.52191 78.693 2.50188 78.6857 2.47992C78.6784 2.45795 78.6748 2.43446 78.675 2.4108C78.6753 2.38715 78.6794 2.36378 78.6871 2.34203C78.6949 2.32029 78.7061 2.30059 78.7202 2.28407C78.7342 2.26754 78.7509 2.25452 78.7691 2.24573L78.7696 2.24551L78.7706 2.24504C83.9292 -0.201405 87.3436 -0.672996 88.1381 0.95119C89.4582 3.64978 82.901 11.144 73.2101 18.0125Z" fill="#3F3D56"/>
        <path d="M60.2928 91.3948C64.8891 91.3948 68.6151 90.6513 68.6151 89.7341C68.6151 88.817 64.8891 88.0735 60.2928 88.0735C55.6965 88.0735 51.9705 88.817 51.9705 89.7341C51.9705 90.6513 55.6965 91.3948 60.2928 91.3948Z" fill="#E6E6E6"/>
        <path d="M32.556 108.95C40.289 108.95 46.5578 107.376 46.5578 105.434C46.5578 103.493 40.289 101.918 32.556 101.918C24.823 101.918 18.5542 103.493 18.5542 105.434C18.5542 107.376 24.823 108.95 32.556 108.95Z" fill="#F2F2F2"/>
        <path d="M89.5801 115C101.11 115 110.458 112.653 110.458 109.758C110.458 106.862 101.11 104.515 89.5801 104.515C78.0498 104.515 68.7026 106.862 68.7026 109.758C68.7026 112.653 78.0498 115 89.5801 115Z" fill="#F2F2F2"/>
        <path d="M32.5134 107.463C38.4411 107.463 43.2464 106.504 43.2464 105.321C43.2464 104.139 38.4411 103.18 32.5134 103.18C26.5858 103.18 21.7805 104.139 21.7805 105.321C21.7805 106.504 26.5858 107.463 32.5134 107.463Z" fill="#E6E6E6"/>
        <path d="M89.5847 113.086C99.7191 113.086 107.935 111.447 107.935 109.425C107.935 107.402 99.7191 105.763 89.5847 105.763C79.4504 105.763 71.2349 107.402 71.2349 109.425C71.2349 111.447 79.4504 113.086 89.5847 113.086Z" fill="#E6E6E6"/>
        <path d="M8.649 58.3508C9.22763 58.3508 9.69669 57.7862 9.69669 57.0897C9.69669 56.3933 9.22763 55.8287 8.649 55.8287C8.07038 55.8287 7.60132 56.3933 7.60132 57.0897C7.60132 57.7862 8.07038 58.3508 8.649 58.3508Z" fill="white"/>
        <path d="M81.9869 76.7264C82.5655 76.7264 83.0346 76.1618 83.0346 75.4654C83.0346 74.7689 82.5655 74.2043 81.9869 74.2043C81.4083 74.2043 80.9392 74.7689 80.9392 75.4654C80.9392 76.1618 81.4083 76.7264 81.9869 76.7264Z" fill="white"/>
        <path d="M46.2058 35.1255C48.7494 35.9992 48.6516 37.8278 51.6687 37.8278C54.6858 37.8278 57.1317 38.3094 57.1317 35.1255C57.1317 31.9417 55.9308 26.023 51.6687 26.298C47.0815 26.594 44.6637 34.5958 46.2058 35.1255Z" fill="#2F2E41"/>
        <path d="M39.5118 62.0861C39.4024 61.8357 39.3399 61.5594 39.3287 61.2768C39.3176 60.9942 39.358 60.7121 39.4472 60.4503C39.5365 60.1886 39.6723 59.9536 39.8451 59.7618C40.018 59.5701 40.2237 59.4263 40.4477 59.3406L46.7063 43.4044L49.5691 45.8208L42.5169 60.7257C42.6116 61.1882 42.5621 61.6765 42.3776 62.0979C42.1932 62.5194 41.8868 62.8448 41.5164 63.0125C41.1459 63.1802 40.7373 63.1785 40.3678 63.0077C39.9984 62.837 39.6938 62.5091 39.5118 62.0861Z" fill="#FFB8B8"/>
        <path d="M44.8747 45.5201C44.8449 45.4007 44.8368 45.2749 44.8511 45.1514C44.8654 45.0279 44.9016 44.9096 44.9573 44.8044L46.9032 41.1325C47.1195 40.55 47.5189 40.0945 48.0137 39.8658C48.5086 39.6372 49.0586 39.6541 49.5432 39.9128C50.0277 40.1716 50.4072 40.6511 50.5985 41.2461C50.7898 41.8412 50.7772 42.5033 50.5635 43.0872L49.5833 47.2943C49.5553 47.4144 49.5062 47.5258 49.4392 47.6209C49.3723 47.7161 49.289 47.7927 49.1952 47.8457C49.1014 47.8986 48.9993 47.9266 48.8957 47.9277C48.7921 47.9288 48.6895 47.903 48.5949 47.8521L45.271 46.0631C45.1763 46.0122 45.092 45.9374 45.0236 45.8437C44.9552 45.75 44.9044 45.6396 44.8747 45.5201Z" fill="#6179CD"/>
        <path d="M62.2382 92.8824L60.514 93.6382L57.272 85.9928L59.8166 84.8775L62.2382 92.8824Z" fill="#FFB8B8"/>
        <path d="M59.103 93.5849L62.4282 92.1276L63.1905 94.6476L57.7717 97.0225C57.5695 96.3541 57.5962 95.6165 57.8459 94.9718C58.0955 94.3271 58.5477 93.8282 59.103 93.5849Z" fill="#2F2E41"/>
        <path d="M57.5311 88.0464L50.9625 74.2103C50.8991 74.0764 50.8663 73.9247 50.8677 73.7706C50.8691 73.6164 50.9045 73.4655 50.9703 73.3333L53.9281 67.3996C53.9983 67.2589 54.1001 67.1449 54.2219 67.0711C54.3437 66.9972 54.4803 66.9664 54.6161 66.9823C54.7518 66.9982 54.881 67.06 54.9887 67.1607C55.0963 67.2614 55.1781 67.3968 55.2244 67.5512L60.8166 86.1913C60.8781 86.3942 60.8744 86.6175 60.806 86.8172C60.7376 87.0169 60.6096 87.1786 60.4471 87.2704L58.4656 88.4001C58.37 88.4546 58.2655 88.4828 58.1597 88.4828C58.0323 88.483 57.9071 88.4428 57.7967 88.3662C57.6864 88.2896 57.5947 88.1793 57.5311 88.0464Z" fill="#2F2E41"/>
        <path d="M51.4356 37.655C53.4658 37.655 55.1116 35.674 55.1116 33.2303C55.1116 30.7866 53.4658 28.8055 51.4356 28.8055C49.4053 28.8055 47.7595 30.7866 47.7595 33.2303C47.7595 35.674 49.4053 37.655 51.4356 37.655Z" fill="#FFB8B8"/>
        <path d="M46.207 53.2726C43.312 45.5461 46.2305 41.2277 47.6196 39.7299C48.0197 39.2978 48.5384 39.059 49.0759 39.0594H54.2544C54.6263 39.0594 54.992 39.1738 55.3168 39.3918C55.6416 39.6098 55.9147 39.9241 56.1102 40.3048C56.3057 40.6856 56.4171 41.1202 56.4338 41.5673C56.4506 42.0145 56.372 42.4594 56.2057 42.8597L52.7439 51.1933L46.2351 53.3479L46.207 53.2726Z" fill="#6179CD"/>
        <path d="M50.3934 94.9717L48.5584 94.9715L47.6855 86.4524L50.3937 86.4526L50.3934 94.9717Z" fill="#FFB8B8"/>
        <path d="M47.2479 94.3404H50.7866V97.0223H45.0198C45.0198 96.6701 45.0774 96.3214 45.1894 95.996C45.3014 95.6706 45.4655 95.3749 45.6724 95.1259C45.8793 94.8769 46.1249 94.6793 46.3952 94.5445C46.6655 94.4098 46.9553 94.3404 47.2479 94.3404Z" fill="#2F2E41"/>
        <path d="M49.6159 91.7194L46.6781 91.3115C46.4881 91.2851 46.3146 91.1689 46.1958 90.9885C46.077 90.8081 46.0226 90.5783 46.0446 90.3496C46.045 90.3448 46.0455 90.3399 46.0461 90.3351L48.668 66.5729C48.6771 66.4901 48.6734 66.406 48.6571 66.3249L46.0218 53.2377C45.9969 53.117 45.994 52.9912 46.0135 52.8691C46.033 52.747 46.0743 52.6314 46.1346 52.5304C46.5432 51.8522 47.9434 50.2719 52.1085 50.2419H52.113C52.2517 50.242 52.3875 50.29 52.5042 50.3803C52.6209 50.4705 52.7135 50.5993 52.7711 50.7512L53.3267 52.2223C53.3681 52.3315 53.4328 52.4255 53.5143 52.4948C54.279 53.1464 57.9837 56.8037 55.8084 64.8332C53.6704 72.7252 50.9311 88.0468 50.4036 91.0381C50.37 91.2325 50.2817 91.407 50.1536 91.5322C50.0255 91.6573 49.8655 91.7255 49.7005 91.7252C49.6722 91.7252 49.644 91.7233 49.6159 91.7194Z" fill="#2F2E41"/>
        <path d="M64.2293 34.3408C64.2364 34.4401 64.2501 34.5386 64.2701 34.6354L59.279 41.2484L57.5163 40.7911L56.5952 43.903L59.6504 45.0776C59.8973 45.1725 60.163 45.1684 60.4077 45.0661C60.6525 44.9637 60.8631 44.7685 61.0078 44.5099L65.7255 36.0795C66.0443 36.0966 66.3598 35.9964 66.6301 35.7924C66.9003 35.5884 67.1126 35.2901 67.2387 34.9374C67.3647 34.5846 67.3985 34.194 67.3356 33.8175C67.2727 33.441 67.1161 33.0965 66.8866 32.8297C66.657 32.563 66.3655 32.3867 66.0507 32.3243C65.7358 32.2619 65.4127 32.3164 65.1242 32.4804C64.8358 32.6445 64.5956 32.9103 64.4358 33.2426C64.2759 33.575 64.2039 33.958 64.2293 34.3408Z" fill="#FFB8B8"/>
        <path d="M59.1281 41.5287L57.971 45.379C57.938 45.4885 57.8859 45.5882 57.8181 45.6713C57.7502 45.7544 57.6683 45.819 57.5779 45.8605C57.4875 45.9021 57.3907 45.9197 57.2941 45.9122C57.1975 45.9047 57.1034 45.8722 57.0182 45.8169L54.0326 43.8808C53.5678 43.6749 53.1899 43.2556 52.9816 42.7148C52.7733 42.1739 52.7517 41.5558 52.9215 40.9958C53.0913 40.4358 53.4387 39.9798 53.8875 39.7277C54.3363 39.4756 54.8498 39.448 55.3155 39.6509L58.6286 40.4584C58.7234 40.4816 58.813 40.5291 58.8913 40.5976C58.9695 40.6662 59.0345 40.7543 59.0819 40.8559C59.1293 40.9575 59.158 41.0701 59.166 41.1862C59.1739 41.3023 59.161 41.4191 59.1281 41.5287Z" fill="#6179CD"/>
        <path d="M55.9345 32.9637H54.4805L53.8391 30.8019L53.7108 32.9637H53.0159L52.6417 31.7026L52.5669 32.9637C50.7484 33.8873 49.0245 33.9128 47.4033 32.9637C47.4033 31.7214 47.8133 30.53 48.5431 29.6516C49.2729 28.7732 50.2627 28.2797 51.2947 28.2797H52.0431C53.0751 28.2797 54.0649 28.7732 54.7947 29.6516C55.5245 30.53 55.9345 31.7214 55.9345 32.9637Z" fill="#2F2E41"/>
        <path d="M17.1053 79.2486H16.5815V78.6181C16.5815 78.4031 16.5105 78.1969 16.3842 78.0448C16.2579 77.8928 16.0866 77.8074 15.908 77.8074C15.7294 77.8074 15.558 77.8928 15.4317 78.0448C15.3054 78.1969 15.2345 78.4031 15.2345 78.6181V79.2486H14.7106C14.532 79.2486 14.3607 79.334 14.2344 79.486C14.1081 79.6381 14.0371 79.8443 14.0371 80.0593C14.0371 80.2743 14.1081 80.4805 14.2344 80.6325C14.3607 80.7846 14.532 80.87 14.7106 80.87H15.2345V81.5005C15.2345 81.7155 15.3054 81.9217 15.4317 82.0738C15.558 82.2258 15.7294 82.3112 15.908 82.3112C16.0866 82.3112 16.2579 82.2258 16.3842 82.0738C16.5105 81.9217 16.5815 81.7155 16.5815 81.5005V80.87H17.1053C17.284 80.87 17.4553 80.7846 17.5816 80.6325C17.7079 80.4805 17.7788 80.2743 17.7788 80.0593C17.7788 79.8443 17.7079 79.6381 17.5816 79.486C17.4553 79.334 17.284 79.2486 17.1053 79.2486Z" fill="white"/>
        <path d="M94.209 63.7843H93.9366V63.4564C93.9366 63.3446 93.8997 63.2374 93.834 63.1583C93.7683 63.0793 93.6793 63.0349 93.5864 63.0349C93.4935 63.0349 93.4044 63.0793 93.3387 63.1583C93.2731 63.2374 93.2362 63.3446 93.2362 63.4564V63.7843H92.9638C92.8709 63.7843 92.7818 63.8287 92.7161 63.9078C92.6504 63.9868 92.6135 64.094 92.6135 64.2058C92.6135 64.3177 92.6504 64.4249 92.7161 64.5039C92.7818 64.583 92.8709 64.6274 92.9638 64.6274H93.2362V64.9553C93.2362 65.0671 93.2731 65.1743 93.3387 65.2534C93.4044 65.3324 93.4935 65.3768 93.5864 65.3768C93.6793 65.3768 93.7683 65.3324 93.834 65.2534C93.8997 65.1743 93.9366 65.0671 93.9366 64.9553V64.6274H94.209C94.3019 64.6276 94.391 64.5834 94.4568 64.5045C94.5226 64.4255 94.5597 64.3184 94.5598 64.2066C94.56 64.0948 94.5233 63.9875 94.4577 63.9083C94.3921 63.8291 94.3031 63.7845 94.2102 63.7843H94.209Z" fill="#FF6584"/>
        <path d="M14.7345 41.9858H14.4621V41.6579C14.4623 41.5461 14.4256 41.4388 14.36 41.3596C14.2944 41.2804 14.2054 41.2357 14.1125 41.2355C14.0666 41.2354 14.021 41.2462 13.9785 41.2673C13.9359 41.2884 13.8973 41.3194 13.8647 41.3585C13.7989 41.4374 13.7618 41.5445 13.7617 41.6563V41.9858H13.4893C13.4433 41.9857 13.3977 41.9965 13.3552 42.0176C13.3127 42.0387 13.274 42.0696 13.2414 42.1087C13.2089 42.1478 13.183 42.1942 13.1653 42.2453C13.1477 42.2964 13.1385 42.3512 13.1384 42.4066C13.1383 42.4619 13.1473 42.5168 13.1649 42.568C13.1824 42.6191 13.2081 42.6657 13.2406 42.7049C13.273 42.7441 13.3116 42.7752 13.3541 42.7965C13.3965 42.8178 13.442 42.8288 13.488 42.8289H13.7617V43.1568C13.7615 43.2686 13.7982 43.3759 13.8638 43.4551C13.9293 43.5343 14.0184 43.5789 14.1112 43.5791C14.2041 43.5793 14.2933 43.5351 14.3591 43.4562C14.4249 43.3773 14.4619 43.2701 14.4621 43.1583V42.8289H14.7345C14.8274 42.8292 14.9166 42.7851 14.9825 42.7063C15.0483 42.6274 15.0855 42.5203 15.0857 42.4085C15.086 42.2967 15.0494 42.1894 14.9839 42.1101C14.9184 42.0308 14.8294 41.9861 14.7365 41.9858H14.7358L14.7345 41.9858Z" fill="#6179CD"/>
        <path d="M34.9398 41.9858H34.6674V41.6579C34.6676 41.5461 34.6309 41.4388 34.5653 41.3596C34.4998 41.2804 34.4108 41.2357 34.3179 41.2355C34.225 41.2353 34.1358 41.2795 34.07 41.3585C34.0042 41.4374 33.9672 41.5445 33.967 41.6563V41.9858H33.6946C33.6017 41.9856 33.5126 42.0298 33.4468 42.1087C33.381 42.1876 33.3439 42.2948 33.3438 42.4066C33.3436 42.5184 33.3803 42.6257 33.4459 42.7049C33.5115 42.7841 33.6005 42.8287 33.6934 42.8289H33.967V43.1568C33.9668 43.2686 34.0036 43.3759 34.0691 43.4551C34.1347 43.5343 34.2237 43.5789 34.3166 43.5791C34.4095 43.5793 34.4986 43.5351 34.5644 43.4562C34.6302 43.3773 34.6673 43.2701 34.6674 43.1583V42.8289H34.9398C35.0327 42.8292 35.1219 42.7851 35.1878 42.7063C35.2536 42.6274 35.2908 42.5203 35.2911 42.4085C35.2913 42.2967 35.2547 42.1894 35.1892 42.1101C35.1237 42.0308 35.0347 41.9861 34.9418 41.9858H34.9411L34.9398 41.9858Z" fill="white"/>
        <path d="M104.536 85.2225H104.264V84.8946C104.264 84.7828 104.227 84.6756 104.161 84.5965C104.095 84.5174 104.006 84.473 103.914 84.473C103.821 84.473 103.732 84.5174 103.666 84.5965C103.6 84.6756 103.563 84.7828 103.563 84.8946V85.2225H103.291C103.198 85.2225 103.109 85.2669 103.043 85.3459C102.978 85.425 102.941 85.5322 102.941 85.644C102.941 85.7558 102.978 85.863 103.043 85.9421C103.109 86.0212 103.198 86.0656 103.291 86.0656H103.563V86.3934C103.563 86.5053 103.6 86.6125 103.666 86.6915C103.732 86.7706 103.821 86.815 103.914 86.815C104.006 86.815 104.095 86.7706 104.161 86.6915C104.227 86.6125 104.264 86.5053 104.264 86.3934V86.0656H104.536C104.629 86.0656 104.718 86.0212 104.784 85.9421C104.849 85.863 104.886 85.7558 104.886 85.644C104.886 85.5322 104.849 85.425 104.784 85.3459C104.718 85.2669 104.629 85.2225 104.536 85.2225Z" fill="white"/>
        <path d="M73.1055 50.0926H72.8331V49.7648C72.8331 49.653 72.7962 49.5457 72.7305 49.4667C72.6648 49.3876 72.5757 49.3432 72.4829 49.3432C72.39 49.3432 72.3009 49.3876 72.2352 49.4667C72.1695 49.5457 72.1326 49.653 72.1326 49.7648V50.0926H71.8602C71.7674 50.0926 71.6783 50.1371 71.6126 50.2161C71.5469 50.2952 71.51 50.4024 71.51 50.5142C71.51 50.626 71.5469 50.7332 71.6126 50.8123C71.6783 50.8913 71.7674 50.9358 71.8602 50.9358H72.1326V51.2636C72.1326 51.3754 72.1695 51.4827 72.2352 51.5617C72.3009 51.6408 72.39 51.6852 72.4829 51.6852C72.5757 51.6852 72.6648 51.6408 72.7305 51.5617C72.7962 51.4827 72.8331 51.3754 72.8331 51.2636V50.9358H73.1055C73.1515 50.9359 73.197 50.925 73.2396 50.9039C73.2821 50.8829 73.3207 50.8519 73.3533 50.8128C73.3859 50.7737 73.4118 50.7273 73.4294 50.6762C73.4471 50.6251 73.4563 50.5703 73.4563 50.5149C73.4564 50.4596 73.4474 50.4047 73.4299 50.3536C73.4124 50.3024 73.3867 50.2559 73.3542 50.2166C73.3217 50.1774 73.2832 50.1463 73.2407 50.125C73.1982 50.1037 73.1527 50.0927 73.1067 50.0926H73.1055Z" fill="white"/>
        <path d="M25.0617 59.1003H24.7893V58.7724C24.7894 58.6606 24.7527 58.5533 24.6872 58.4741C24.6216 58.3949 24.5326 58.3502 24.4397 58.35C24.3468 58.3498 24.2577 58.394 24.1919 58.473C24.1261 58.5519 24.089 58.659 24.0888 58.7708V59.1003H23.8164C23.7235 59.1001 23.6344 59.1443 23.5686 59.2232C23.5028 59.3021 23.4657 59.4093 23.4656 59.5211C23.4654 59.6329 23.5022 59.7402 23.5677 59.8194C23.6333 59.8986 23.7223 59.9432 23.8152 59.9434H24.0888V60.2713C24.0886 60.3831 24.1254 60.4904 24.1909 60.5696C24.2565 60.6488 24.3455 60.6934 24.4384 60.6936C24.5313 60.6938 24.6204 60.6496 24.6862 60.5707C24.752 60.4918 24.7891 60.3846 24.7893 60.2728V59.9434H25.0617C25.1546 59.9436 25.2437 59.8993 25.3095 59.8204C25.3753 59.7415 25.4123 59.6344 25.4125 59.5226C25.4127 59.4108 25.3759 59.3035 25.3104 59.2243C25.2448 59.1451 25.1558 59.1005 25.0629 59.1003L25.0617 59.1003Z" fill="white"/>
        <path d="M25.9596 29.1949H25.6872V28.867C25.6874 28.7552 25.6507 28.6479 25.5851 28.5687C25.5195 28.4895 25.4305 28.4448 25.3376 28.4446C25.2448 28.4444 25.1556 28.4886 25.0898 28.5676C25.024 28.6465 24.9869 28.7536 24.9868 28.8654V29.1949H24.7144C24.6215 29.1947 24.5323 29.2389 24.4665 29.3178C24.4007 29.3967 24.3637 29.5039 24.3635 29.6157C24.3634 29.7275 24.4001 29.8348 24.4657 29.914C24.5312 29.9932 24.6203 30.0378 24.7131 30.038H24.9868V30.3659C24.9866 30.4777 25.0233 30.585 25.0889 30.6642C25.1544 30.7434 25.2435 30.788 25.3363 30.7882C25.4292 30.7884 25.5184 30.7442 25.5842 30.6653C25.65 30.5864 25.687 30.4792 25.6872 30.3674V30.038H25.9596C26.0525 30.0382 26.1416 29.994 26.2074 29.915C26.2732 29.8361 26.3103 29.729 26.3105 29.6172C26.3106 29.5054 26.2739 29.3981 26.2083 29.3189C26.1427 29.2397 26.0537 29.1951 25.9608 29.1949L25.9596 29.1949Z" fill="white"/>
        <path d="M72.483 17.5648C61.6415 10.9729 52.55 13.1149 52.4277 11.9779C52.4279 10.1003 55.5495 8.42544 60.9922 7.38285C61.0116 7.37891 61.0314 7.3796 61.0506 7.3849C61.0698 7.3902 61.0879 7.4 61.1039 7.41373C61.1199 7.42746 61.1335 7.44486 61.144 7.46493C61.1544 7.485 61.1615 7.50735 61.1647 7.5307C61.168 7.55405 61.1673 7.57795 61.1629 7.60102C61.1585 7.62409 61.1503 7.64588 61.1389 7.66515C61.1275 7.68442 61.113 7.70079 61.0963 7.71333C61.0796 7.72586 61.0611 7.73431 61.0417 7.7382L61.0411 7.73831L61.0392 7.73867C55.9122 8.72087 52.7272 10.3452 52.7271 11.9779C52.7269 14.8098 61.774 17.2033 72.483 17.2045C83.1921 17.2056 92.2396 14.8141 92.2398 11.9822C92.2399 10.3427 89.0348 8.71365 83.8751 7.73094C83.8557 7.72737 83.8371 7.71922 83.8202 7.70696C83.8034 7.6947 83.7888 7.67858 83.7772 7.65951C83.7655 7.64045 83.7571 7.61881 83.7524 7.59583C83.7477 7.57285 83.7469 7.54899 83.7498 7.5256C83.7528 7.50222 83.7596 7.47976 83.7697 7.45952C83.7799 7.43928 83.7933 7.42166 83.8092 7.40765C83.825 7.39364 83.843 7.38353 83.8621 7.37788C83.8812 7.37224 83.901 7.37118 83.9204 7.37475L83.9209 7.37484L83.922 7.37504C89.3984 8.41811 92.5393 10.0974 92.5391 11.9822C92.5389 15.1139 82.5212 23.6682 72.483 17.5648Z" fill="#3F3D56"/>
    </g>
    <defs>
        <clipPath id="clip0_304_107">
            <rect width="117" height="115" fill="white"/>
        </clipPath>
    </defs>
</svg>
