<?xml version="1.0" encoding="UTF-8" standalone="no" ?>


<svg width="244" height="211" viewBox="0 0 244 211" fill="none" xmlns="http://www.w3.org/2000/svg">
    <g clip-path="url(#clip0_6_2)">
        <path d="M194.894 21.9554C194.366 24.0128 194.973 27.2524 195.202 29.1729C195.446 31.2261 192.062 33.0637 190.125 33.1799C190.173 32.5002 189.991 31.8247 189.612 31.2718C189.607 31.9293 189.479 32.5793 189.233 33.184H173.071C171.036 29.1563 169.304 23.6519 171.174 17.9608C171.268 16.8179 171.682 15.7298 172.363 14.8332C173.044 13.9365 173.961 13.2713 175 12.921L183.813 9.9552C187.288 9.9552 191.553 10.4737 193.474 13.1948C194.324 14.4476 194.894 15.8865 195.14 17.4038C195.386 18.921 195.302 20.4771 194.894 21.9554Z" fill="#2F2E41"/>
        <path d="M210.369 199.938C210.657 199.949 210.941 199.867 211.183 199.702C211.425 199.537 211.613 199.299 211.722 199.018C211.831 198.737 211.855 198.428 211.791 198.132C211.727 197.837 211.578 197.569 211.364 197.366C211.328 197.218 211.301 197.112 211.264 196.964C211.533 196.225 212.006 195.587 212.622 195.133C213.237 194.678 213.968 194.427 214.721 194.412C215.473 194.397 216.212 194.619 216.844 195.049C217.475 195.478 217.971 196.097 218.266 196.824C219.969 200.908 222.164 205.132 221.133 209.659C228.073 193.803 225.486 174.191 214.896 160.796C211.987 159.149 209.615 156.194 208.973 152.743C210.409 153.239 212.184 151.996 211.093 150.42C210.62 149.819 210.144 149.222 209.672 148.621C215.056 142.474 221.625 151.984 215.711 160.266C217.694 162.828 219.416 165.602 220.849 168.541C220.496 165.408 220.855 162.232 221.897 159.274C222.955 156.516 224.964 154.182 226.73 151.789C228.877 148.874 233.362 150.164 233.688 153.833C231.689 154.547 231.456 157.596 233.754 157.99C233.215 164.827 229.027 171.148 223.208 174.202C225.425 180.55 226.329 187.321 225.861 194.065C226.822 186.179 234.844 184.187 240.435 181.001C240.791 180.756 241.206 180.626 241.631 180.625C242.056 180.624 242.472 180.754 242.828 180.997C243.184 181.241 243.466 181.588 243.637 181.997C243.809 182.406 243.864 182.858 243.795 183.299C243.022 183.638 242.284 184.058 241.59 184.55C241.265 184.785 241.017 185.119 240.88 185.508C240.742 185.897 240.723 186.321 240.824 186.721C240.925 187.122 241.141 187.48 241.443 187.747C241.745 188.013 242.118 188.175 242.511 188.209C239.745 195.609 232.467 200.632 224.945 200.68C224.252 203.99 223.234 207.215 221.907 210.304L210.743 210.415C210.702 210.285 210.665 210.151 210.628 210.021C211.662 210.079 212.698 210.004 213.715 209.797C210.95 206.421 208.82 204.705 210.368 199.938L210.369 199.938Z" fill="#F2F2F2"/>
        <path d="M187.329 202.298H182.975L180.902 184.639H187.329V202.298Z" fill="#FFB6B6"/>
        <path d="M189.627 210.231H186.504L185.947 207.131L184.52 210.231H176.238C175.841 210.231 175.454 210.098 175.134 209.85C174.815 209.603 174.578 209.255 174.46 208.856C174.342 208.458 174.348 208.03 174.478 207.635C174.607 207.241 174.853 206.9 175.18 206.663L181.794 201.86V198.726L188.75 199.163L189.627 210.231Z" fill="#2F2E41"/>
        <path d="M194.164 170.313L191.107 173.574L177.692 162.727L182.204 157.915L194.164 170.313Z" fill="#FFB6B6"/>
        <path d="M201.149 174.162L198.957 176.5L196.467 174.741L197.564 177.986L191.749 184.187C191.471 184.485 191.109 184.68 190.717 184.746C190.325 184.812 189.923 184.744 189.57 184.553C189.217 184.362 188.932 184.057 188.756 183.683C188.579 183.309 188.521 182.885 188.59 182.474L189.981 174.15L187.858 171.95L193.038 167.048L201.149 174.162Z" fill="#2F2E41"/>
        <path d="M159.333 74.7748L172.503 52.7411C173.059 51.8059 173.242 50.6786 173.014 49.6024C172.786 48.5263 172.164 47.5876 171.284 46.9889C170.828 46.6792 170.318 46.4703 169.783 46.3749C169.248 46.2795 168.7 46.2997 168.173 46.4341C167.646 46.5686 167.15 46.8145 166.716 47.1569C166.283 47.4993 165.92 47.9311 165.65 48.4258L152.636 71.7544L144.16 85.5793C143.455 85.4498 142.729 85.5517 142.081 85.8712C141.433 86.1906 140.894 86.7122 140.537 87.3649C140.181 88.0177 140.024 88.77 140.088 89.5196C140.153 90.2693 140.435 90.9799 140.897 91.5551C141.359 92.1302 141.978 92.5419 142.67 92.7342C143.362 92.9265 144.093 92.8902 144.765 92.6301C145.437 92.37 146.016 91.8987 146.424 91.2804C146.832 90.662 147.05 89.9265 147.046 89.1738L159.333 74.7748Z" fill="#FFB6B6"/>
        <path d="M171.745 58.5035L172.855 58.2833C172.706 57.9968 172.643 57.6689 172.676 57.344C172.709 57.019 172.836 56.7124 173.04 56.4656C173.244 56.2187 173.515 56.0434 173.816 55.9633C174.117 55.8831 174.435 55.902 174.726 56.0173C173.388 54.55 174.037 52.1343 174.898 50.3141C175.52 48.9984 176.219 47.6985 176.524 46.2645C176.986 44.0876 176.39 41.4527 173.629 40.9315C172.5 40.7458 171.345 40.9917 170.374 41.6245C168.639 42.7026 168.249 42.2333 167.154 43.9688L166.53 45.1881C165.728 46.5082 164.772 47.7169 163.683 48.7854C162.905 49.6008 162.277 50.5614 161.833 51.6181C161.774 51.7489 161.688 51.8638 161.58 51.9537C161.153 52.3009 160.573 52.3181 160.038 52.3921C159.363 52.4854 158.592 52.7857 158.609 53.6656C158.619 53.8759 158.67 54.0818 158.759 54.2704C158.848 54.459 158.973 54.6262 159.127 54.7614C161.975 57.3823 165.308 59.3556 168.916 60.5571C169.718 60.8235 170.619 61.0439 171.373 60.6532C172.127 60.2624 172.45 58.9848 171.745 58.5035Z" fill="#0D1C4C"/>
        <path d="M188.456 100.382L162.814 99.9668L162.025 93.7448L164.392 79.6416H184.511L188.456 100.382Z" fill="#FFB6B6"/>
        <path d="M133.622 116.974H33.8172C31.4116 116.971 29.1054 115.965 27.4044 114.176C25.7034 112.388 24.7466 109.963 24.7439 107.433V47.2872C24.7467 44.7578 25.7035 42.3329 27.4044 40.5443C29.1054 38.7558 31.4116 37.7497 33.8172 37.7468H133.622C136.028 37.7497 138.334 38.7558 140.035 40.5443C141.736 42.3329 142.693 44.7578 142.696 47.2872V107.433C142.693 109.963 141.736 112.388 140.035 114.176C138.334 115.965 136.028 116.971 133.622 116.974Z" fill="white"/>
        <path d="M133.622 116.974H33.8172C31.4116 116.971 29.1054 115.965 27.4044 114.176C25.7034 112.388 24.7466 109.963 24.7439 107.433V47.2872C24.7467 44.7578 25.7035 42.3329 27.4044 40.5443C29.1054 38.7558 31.4116 37.7497 33.8172 37.7468H133.622C136.028 37.7497 138.334 38.7558 140.035 40.5443C141.736 42.3329 142.693 44.7578 142.696 47.2872V107.433C142.693 109.963 141.736 112.388 140.035 114.176C138.334 115.965 136.028 116.971 133.622 116.974ZM33.8172 38.5764C31.6208 38.579 29.5151 39.4976 27.962 41.1306C26.409 42.7636 25.5354 44.9778 25.5329 47.2872V107.433C25.5354 109.743 26.409 111.957 27.9621 113.59C29.5151 115.223 31.6208 116.141 33.8172 116.144H133.622C135.819 116.141 137.924 115.223 139.478 113.59C141.031 111.957 141.904 109.743 141.907 107.433V47.2872C141.904 44.9778 141.031 42.7636 139.478 41.1306C137.925 39.4976 135.819 38.579 133.622 38.5764H33.8172Z" fill="#E6E6E6"/>
        <path d="M141.907 81.4416H25.1381C25.0335 81.4416 24.9331 81.3979 24.8592 81.3201C24.7852 81.2423 24.7436 81.1368 24.7436 81.0268C24.7436 80.9168 24.7852 80.8113 24.8592 80.7335C24.9331 80.6557 25.0335 80.612 25.1381 80.612H141.907C142.012 80.612 142.112 80.6557 142.186 80.7335C142.26 80.8113 142.301 80.9168 142.301 81.0268C142.301 81.1368 142.26 81.2423 142.186 81.3201C142.112 81.3979 142.012 81.4416 141.907 81.4416Z" fill="#E6E6E6"/>
        <path d="M133.228 19.4956C135.189 19.4956 136.778 17.8242 136.778 15.7624C136.778 13.7006 135.189 12.0292 133.228 12.0292C131.267 12.0292 129.678 13.7006 129.678 15.7624C129.678 17.8242 131.267 19.4956 133.228 19.4956Z" fill="#F2F2F2"/>
        <path d="M3.55039 78.9365C5.51121 78.9365 7.10077 77.2651 7.10077 75.2033C7.10077 73.1415 5.51121 71.4701 3.55039 71.4701C1.58956 71.4701 0 73.1415 0 75.2033C0 77.2651 1.58956 78.9365 3.55039 78.9365Z" fill="#F2F2F2"/>
        <path d="M76.5305 142.816C78.4914 142.816 80.0809 141.144 80.0809 139.082C80.0809 137.021 78.4914 135.349 76.5305 135.349C74.5697 135.349 72.9802 137.021 72.9802 139.082C72.9802 141.144 74.5697 142.816 76.5305 142.816Z" fill="#F2F2F2"/>
        <path d="M55.0884 99.6765H42.763C42.6584 99.6765 42.558 99.6328 42.4841 99.555C42.4101 99.4772 42.3685 99.3717 42.3685 99.2617C42.3685 99.1517 42.4101 99.0461 42.4841 98.9683C42.558 98.8906 42.6584 98.8469 42.763 98.8469H55.0884C55.193 98.8469 55.2934 98.8906 55.3674 98.9683C55.4413 99.0461 55.4829 99.1517 55.4829 99.2617C55.4829 99.3717 55.4413 99.4772 55.3674 99.555C55.2934 99.6328 55.193 99.6765 55.0884 99.6765Z" fill="#CCCCCC"/>
        <path d="M55.0884 106.313H42.763C42.6584 106.313 42.558 106.27 42.4841 106.192C42.4101 106.114 42.3685 106.008 42.3685 105.898C42.3685 105.788 42.4101 105.683 42.4841 105.605C42.558 105.527 42.6584 105.484 42.763 105.484H55.0884C55.193 105.484 55.2934 105.527 55.3674 105.605C55.4413 105.683 55.4829 105.788 55.4829 105.898C55.4829 106.008 55.4413 106.114 55.3674 106.192C55.2934 106.27 55.193 106.313 55.0884 106.313Z" fill="#CCCCCC"/>
        <path d="M122.546 99.6765H110.22C110.116 99.6765 110.015 99.6328 109.941 99.555C109.867 99.4772 109.826 99.3717 109.826 99.2617C109.826 99.1517 109.867 99.0461 109.941 98.9683C110.015 98.8906 110.116 98.8469 110.22 98.8469H122.546C122.65 98.8469 122.751 98.8906 122.825 98.9683C122.899 99.0461 122.94 99.1517 122.94 99.2617C122.94 99.3717 122.899 99.4772 122.825 99.555C122.751 99.6328 122.65 99.6765 122.546 99.6765Z" fill="#CCCCCC"/>
        <path d="M122.546 106.313H110.22C110.116 106.313 110.015 106.27 109.941 106.192C109.867 106.114 109.826 106.008 109.826 105.898C109.826 105.788 109.867 105.683 109.941 105.605C110.015 105.527 110.116 105.484 110.22 105.484H122.546C122.65 105.484 122.751 105.527 122.825 105.605C122.899 105.683 122.94 105.788 122.94 105.898C122.94 106.008 122.899 106.114 122.825 106.192C122.751 106.27 122.65 106.313 122.546 106.313Z" fill="#CCCCCC"/>
        <path d="M100.06 99.6765H87.7345C87.6299 99.6765 87.5296 99.6328 87.4556 99.555C87.3816 99.4772 87.3401 99.3717 87.3401 99.2617C87.3401 99.1517 87.3816 99.0461 87.4556 98.9683C87.5296 98.8906 87.6299 98.8469 87.7345 98.8469H100.06C100.165 98.8469 100.265 98.8906 100.339 98.9683C100.413 99.0461 100.454 99.1517 100.454 99.2617C100.454 99.3717 100.413 99.4772 100.339 99.555C100.265 99.6328 100.165 99.6765 100.06 99.6765Z" fill="#CCCCCC"/>
        <path d="M100.06 106.313H87.7345C87.6299 106.313 87.5296 106.27 87.4556 106.192C87.3816 106.114 87.3401 106.008 87.3401 105.898C87.3401 105.788 87.3816 105.683 87.4556 105.605C87.5296 105.527 87.6299 105.484 87.7345 105.484H100.06C100.165 105.484 100.265 105.527 100.339 105.605C100.413 105.683 100.454 105.788 100.454 105.898C100.454 106.008 100.413 106.114 100.339 106.192C100.265 106.27 100.165 106.313 100.06 106.313Z" fill="#CCCCCC"/>
        <path d="M77.5742 99.6765H65.2488C65.1442 99.6765 65.0438 99.6328 64.9698 99.555C64.8958 99.4772 64.8543 99.3717 64.8543 99.2617C64.8543 99.1517 64.8958 99.0461 64.9698 98.9683C65.0438 98.8906 65.1442 98.8469 65.2488 98.8469H77.5742C77.6788 98.8469 77.7792 98.8906 77.8531 98.9683C77.9271 99.0461 77.9687 99.1517 77.9687 99.2617C77.9687 99.3717 77.9271 99.4772 77.8531 99.555C77.7792 99.6328 77.6788 99.6765 77.5742 99.6765Z" fill="#CCCCCC"/>
        <path d="M77.5742 106.313H65.2488C65.1442 106.313 65.0438 106.27 64.9698 106.192C64.8958 106.114 64.8543 106.008 64.8543 105.898C64.8543 105.788 64.8958 105.683 64.9698 105.605C65.0438 105.527 65.1442 105.484 65.2488 105.484H77.5742C77.6788 105.484 77.7792 105.527 77.8531 105.605C77.9271 105.683 77.9687 105.788 77.9687 105.898C77.9687 106.008 77.9271 106.114 77.8531 106.192C77.7792 106.27 77.6788 106.313 77.5742 106.313Z" fill="#CCCCCC"/>
        <path d="M162.026 93.33L161.237 104.53L146.351 132.567C145.637 133.815 145.323 135.272 145.457 136.723C145.591 138.173 146.166 139.54 147.096 140.62L170.439 162.86C170.439 162.86 175.028 163.018 174.641 165.299C174.255 167.579 176.707 167.471 176.707 167.471L179.467 169.568L180.961 157.624C175.942 145.841 168.5 142.247 162.026 136.811C162.026 136.811 164.756 135.958 164.18 134.969C163.603 133.98 165.413 133.915 165.413 133.915C165.413 133.915 166.613 133.745 166.686 132.825C166.759 131.906 167.923 131.767 167.923 131.767L174.454 124.855L191.612 124.025C191.612 124.025 198.873 104.899 186.878 92.5004L162.026 93.33Z" fill="#2F2E41"/>
        <path d="M174.492 119.661L180.172 190.808L188.537 190.275L191.612 124.025L174.492 119.661Z" fill="#2F2E41"/>
        <path d="M174.9 34.7999L184.476 34.2813L188.923 41.6709C188.923 41.6709 197.292 43.142 196.712 53.5107C196.132 63.8794 186.53 72.978 186.53 72.978L186.94 78.3776L186.228 80.5192L186.319 81.7218L187.291 82.9953L187.391 84.3124L186.53 86.3963L186.878 89.182C186.878 89.182 178.214 90.9904 173.67 87.39C169.126 83.7896 162.42 85.8636 162.42 85.8636L162.168 82.4318L163.482 80.579L162.748 78.1623L163.851 75.8379L164.426 68.4545C164.426 68.4545 158.132 58.5104 165.358 51.0207L168.258 45.8364L171.503 41.6732L174.9 34.7999Z" fill="#0D1C4C"/>
        <path d="M198.381 79.7679L197.676 53.754C197.643 52.652 197.2 51.6078 196.441 50.8467C195.682 50.0856 194.669 49.6687 193.621 49.686C193.078 49.6949 192.543 49.8199 192.048 50.0533C191.553 50.2867 191.109 50.6237 190.742 51.0436C190.375 51.4636 190.093 51.9578 189.913 52.496C189.734 53.0343 189.661 53.6053 189.698 54.1744L191.218 81.1729L191.483 97.6191C190.829 97.9238 190.279 98.4329 189.91 99.0774C189.54 99.7219 189.368 100.471 189.417 101.221C189.465 101.972 189.733 102.689 190.183 103.275C190.633 103.86 191.243 104.286 191.931 104.494C192.619 104.702 193.351 104.682 194.028 104.437C194.705 104.193 195.294 103.735 195.715 103.126C196.136 102.517 196.368 101.786 196.38 101.034C196.392 100.281 196.184 99.5429 195.783 98.9192L198.381 79.7679Z" fill="#FFB6B6"/>
        <path d="M200.093 58.9868C200.274 58.7936 200.39 58.5431 200.422 58.2741C200.455 58.005 200.402 57.7321 200.273 57.4973C200.119 57.2045 200.056 56.8684 200.092 56.5358C200.1 56.4716 200.111 56.408 200.127 56.3454C200.23 55.9706 200.245 55.5752 200.172 55.1928C200.098 54.8104 199.938 54.4523 199.705 54.149C198.924 53.1622 198.546 51.6683 198.383 50.3366C198.204 48.8794 198.098 47.3901 197.593 46.0202C196.864 44.0442 195.123 42.2831 192.746 43.1259C191.74 43.5009 190.888 44.2289 190.333 45.1873C189.148 47.1749 189.135 49.5781 189.143 51.8773L188.717 50.9688C188.768 53.4799 188.336 55.9759 187.448 58.3072C187.978 58.1991 188.352 58.9476 188.181 59.4858C188.01 60.024 187.537 60.3777 187.131 60.752C186.62 61.2239 186.137 61.9248 186.617 62.6459C186.736 62.815 186.887 62.9563 187.061 63.061C187.235 63.1656 187.427 63.2313 187.626 63.254C191.38 63.7671 195.194 63.4585 198.828 62.3475C199.635 62.1002 200.5 61.7569 200.92 60.9912C201.34 60.2256 200.934 58.9746 200.093 58.9868Z" fill="#0D1C4C"/>
        <path d="M180.172 32.7692C185.183 32.7692 189.245 28.4978 189.245 23.2288C189.245 17.9598 185.183 13.6884 180.172 13.6884C175.161 13.6884 171.099 17.9598 171.099 23.2288C171.099 28.4978 175.161 32.7692 180.172 32.7692Z" fill="#FFB6B6"/>
        <path d="M86.1224 22.249C91.9655 22.249 96.7022 17.2684 96.7022 11.1245C96.7022 4.9806 91.9655 0 86.1224 0C80.2794 0 75.5427 4.9806 75.5427 11.1245C75.5427 17.2684 80.2794 22.249 86.1224 22.249Z" fill="#0D1C4C"/>
        <path d="M85.7504 15.587C85.6084 15.587 85.4684 15.5522 85.3414 15.4854C85.2144 15.4186 85.1039 15.3217 85.0188 15.2022L82.7756 12.0572C82.7032 11.9562 82.6506 11.8411 82.6206 11.7187C82.5906 11.5963 82.5838 11.4688 82.6007 11.3436C82.6176 11.2184 82.6578 11.098 82.719 10.9891C82.7803 10.8803 82.8613 10.7852 82.9575 10.7094C83.0537 10.6335 83.1632 10.5783 83.2797 10.547C83.3962 10.5157 83.5174 10.5088 83.6365 10.5269C83.7555 10.5449 83.87 10.5874 83.9734 10.6519C84.0767 10.7165 84.167 10.8019 84.239 10.9032L85.7066 12.9606L89.4759 7.01556C89.6107 6.80386 89.8198 6.65703 90.0574 6.60731C90.2951 6.55758 90.5417 6.60902 90.7433 6.75034C90.9449 6.89165 91.0849 7.11129 91.1327 7.36105C91.1804 7.61081 91.132 7.87028 90.998 8.08252L86.5115 15.1587C86.4304 15.2867 86.3212 15.3923 86.1932 15.4668C86.0652 15.5412 85.9221 15.5824 85.7759 15.5867L85.7504 15.587Z" fill="white"/>
        <path d="M106.382 42.9005H61.0578C59.9537 42.9005 58.8947 42.4393 58.114 41.6183C57.3333 40.7974 56.8947 39.684 56.8947 38.523C56.8947 37.362 57.3333 36.2486 58.114 35.4276C58.8947 34.6067 59.9537 34.1455 61.0578 34.1455H106.382C106.929 34.1449 107.471 34.2578 107.976 34.4775C108.482 34.6972 108.941 35.0196 109.328 35.4261C109.715 35.8327 110.022 36.3154 110.232 36.8468C110.441 37.3782 110.549 37.9478 110.549 38.523C110.549 39.0982 110.441 39.6678 110.232 40.1992C110.022 40.7305 109.715 41.2133 109.328 41.6198C108.941 42.0264 108.482 42.3487 107.976 42.5685C107.471 42.7882 106.929 42.901 106.382 42.9005Z" fill="#0D1C4C"/>
        <path d="M243.533 210.873L142.797 211C142.673 210.999 142.555 210.947 142.467 210.854C142.38 210.762 142.33 210.637 142.33 210.506C142.33 210.376 142.38 210.25 142.467 210.158C142.555 210.065 142.673 210.013 142.797 210.012L243.533 209.885C243.657 209.885 243.776 209.938 243.863 210.03C243.951 210.123 244 210.248 244 210.379C244 210.509 243.951 210.634 243.863 210.727C243.776 210.82 243.657 210.872 243.533 210.873Z" fill="#CACACA"/>
        <path d="M191.612 20.74V22.814H183.762C183.841 22.4136 183.842 22.0002 183.762 21.5998C183.683 21.1993 183.526 20.8205 183.3 20.487C183.294 21.2987 183.102 22.0969 182.74 22.814C178.201 24.2254 174.391 24.1984 171.269 22.814C170.805 22.814 170.361 22.6204 170.033 22.2757C169.705 21.931 169.521 21.4635 169.521 20.9761C169.521 14.6173 174.288 9.25918 180.334 9.12814C181.804 9.09541 183.265 9.37158 184.632 9.94045C185.999 10.5093 187.244 11.3594 188.295 12.4409C189.345 13.5225 190.18 14.8136 190.749 16.2387C191.319 17.6638 191.612 19.1942 191.612 20.74Z" fill="#2F2E41"/>
        <path d="M87.4674 56.4128H71.6879C71.2694 56.4128 70.8681 56.238 70.5722 55.9269C70.2762 55.6157 70.11 55.1937 70.11 54.7536C70.11 54.3136 70.2762 53.8915 70.5722 53.5804C70.8681 53.2692 71.2694 53.0944 71.6879 53.0944H87.4674C87.8859 53.0944 88.2873 53.2692 88.5832 53.5804C88.8791 53.8915 89.0454 54.3136 89.0454 54.7536C89.0454 55.1937 88.8791 55.6157 88.5832 55.9269C88.2873 56.238 87.8859 56.4128 87.4674 56.4128Z" fill="#CCCCCC"/>
        <path d="M91.4123 91.7953H75.6328C75.2143 91.7953 74.8129 91.6205 74.517 91.3093C74.2211 90.9981 74.0549 90.5761 74.0549 90.1361C74.0549 89.696 74.2211 89.274 74.517 88.9628C74.8129 88.6517 75.2143 88.4769 75.6328 88.4769H91.4123C91.8308 88.4769 92.2322 88.6517 92.5281 88.9628C92.824 89.274 92.9902 89.696 92.9902 90.1361C92.9902 90.5761 92.824 90.9981 92.5281 91.3093C92.2322 91.6205 91.8308 91.7953 91.4123 91.7953Z" fill="#CCCCCC"/>
        <path d="M121.393 65.5384H71.2934C70.875 65.5384 70.4736 65.3636 70.1777 65.0525C69.8817 64.7413 69.7155 64.3193 69.7155 63.8792C69.7155 63.4392 69.8817 63.0171 70.1777 62.706C70.4736 62.3948 70.875 62.22 71.2934 62.22H121.393C121.812 62.22 122.213 62.3948 122.509 62.706C122.805 63.0171 122.971 63.4392 122.971 63.8792C122.971 64.3193 122.805 64.7413 122.509 65.0525C122.213 65.3636 121.812 65.5384 121.393 65.5384Z" fill="#CCCCCC"/>
        <path d="M52.9482 70.4409C58.7912 70.4409 63.5279 65.4603 63.5279 59.3164C63.5279 53.1725 58.7912 48.1919 52.9482 48.1919C47.1052 48.1919 42.3685 53.1725 42.3685 59.3164C42.3685 65.4603 47.1052 70.4409 52.9482 70.4409Z" fill="#E6E6E6"/>
    </g>
    <defs>
        <clipPath id="clip0_6_2">
            <rect width="244" height="211" fill="white"/>
        </clipPath>
    </defs>
</svg>
