<svg width="40" height="40" viewBox="0 0 40 40" fill="none" xmlns="http://www.w3.org/2000/svg">
    <circle cx="20" cy="20" r="20" fill="#90A1DC"/>
    <path d="M32.2188 20.1094C32.2188 26.7987 26.7967 32.2188 20.1094 32.2188C13.422 32.2188 8 26.7987 8 20.1094C8 13.424 13.422 8 20.1094 8C26.7967 8 32.2188 13.424 32.2188 20.1094ZM20.1094 22.5508C18.8689 22.5508 17.8633 23.5564 17.8633 24.7969C17.8633 26.0374 18.8689 27.043 20.1094 27.043C21.3499 27.043 22.3555 26.0374 22.3555 24.7969C22.3555 23.5564 21.3499 22.5508 20.1094 22.5508ZM17.9769 14.4772L18.3391 21.1179C18.3561 21.4286 18.613 21.6719 18.9242 21.6719H21.2946C21.6058 21.6719 21.8627 21.4286 21.8796 21.1179L22.2418 14.4772C22.2602 14.1416 21.9929 13.8594 21.6568 13.8594H18.5619C18.2258 13.8594 17.9586 14.1416 17.9769 14.4772Z" fill="black"/>
</svg>
