<svg width="22" height="22" viewBox="0 0 22 22" fill="none" xmlns="http://www.w3.org/2000/svg">
    <path d="M12.224 19.5396L12.2221 19.5415L11.1381 20.6255C10.8734 20.8902 10.4492 20.8875 10.1919 20.6273L10.1899 20.6254L0.697792 11.1381C0.433019 10.8734 0.435752 10.4492 0.695901 10.1919L0.697792 10.19L10.19 0.697792C10.4548 0.433019 10.8789 0.435752 11.1363 0.695901L11.1381 0.697792L12.2221 1.78178C12.4866 2.04627 12.4825 2.48039 12.2107 2.74159C12.2105 2.74176 12.2103 2.74194 12.2101 2.74211L6.32748 8.34649L5.42266 9.2085H6.67236H20.7056C21.0788 9.2085 21.3774 9.5071 21.3774 9.88037V11.4429C21.3774 11.8161 21.0788 12.1147 20.7056 12.1147H6.67236H5.42266L6.32748 12.9768L12.2113 18.5822L12.212 18.5829C12.4868 18.8437 12.491 19.2754 12.224 19.5396Z" fill="#A9B6E2" fill-opacity="0.85" stroke="black"/>
</svg>
