<svg width="135" height="105" viewBox="0 0 135 105" fill="none" xmlns="http://www.w3.org/2000/svg">
    <g clip-path="url(#clip0_306_207)">
        <path d="M108.985 105H27.1281C26.2914 104.999 25.6133 104.171 25.6123 103.15V17.7276C25.6133 16.7064 26.2914 15.8789 27.1281 15.8778H108.985C109.822 15.8791 110.5 16.7065 110.501 17.7278V103.151C110.5 104.172 109.822 105 108.985 105ZM27.1281 16.6177C26.6261 16.6177 26.2191 17.1148 26.2186 17.7276V103.151C26.2186 103.763 26.6261 104.26 27.1282 104.261H108.985C109.487 104.261 109.894 103.763 109.895 103.151V17.7276C109.895 17.115 109.487 16.6184 108.985 16.6177H27.1281Z" fill="#E6E6E6"/>
        <path d="M60.7952 50.575L82.6279 44.2791L83.102 61.5539L81.3928 81.1229L82.6279 104.461H59.082L59.6948 77.3833C59.6948 77.3833 54.441 66.6927 57.5361 55.9168L60.7952 50.575Z" fill="#6179CD"/>
        <path d="M109.478 9.59558C109.587 10.3207 109.585 11.0715 109.472 11.7953C109.358 12.519 109.136 13.198 108.821 13.7846C108.505 14.3711 108.105 14.8508 107.647 15.1899C107.19 15.529 106.686 15.7193 106.172 15.7474L85.2357 50.7608L80.3682 42.2413L102.478 10.504C102.503 9.25503 102.844 8.06244 103.438 7.15225C104.031 6.24205 104.836 5.67752 105.699 5.56562C106.562 5.45373 107.423 5.80225 108.12 6.54514C108.816 7.28803 109.3 8.37366 109.478 9.5963L109.478 9.59558Z" fill="#FEB8B8"/>
        <path d="M89.7938 46.9394C89.7987 47.2663 89.7546 47.591 89.6646 47.8912C89.5746 48.1914 89.4407 48.4601 89.2721 48.6789L83.3852 56.3217C83.0198 56.9632 82.5705 57.4947 82.0627 57.8857C81.5549 58.2767 80.9987 58.5197 80.4259 58.6007C79.853 58.6818 79.2747 58.5993 78.7239 58.358C78.1731 58.1166 77.6607 57.7213 77.2159 57.1943C76.7711 56.6674 76.4026 56.0193 76.1315 55.2871C75.8603 54.5548 75.6919 53.7526 75.6357 52.9264C75.5795 52.1002 75.6367 51.2662 75.804 50.4719C75.9713 49.6776 76.2455 48.9386 76.6108 48.2971L80.7205 38.4894C80.8378 38.2094 80.9955 37.9692 81.183 37.7851C81.3705 37.601 81.5832 37.4773 81.8068 37.4225C82.0304 37.3677 82.2596 37.383 82.4787 37.4675C82.6978 37.5519 82.9017 37.7035 83.0766 37.9118L89.2213 45.2347C89.3962 45.443 89.5379 45.7032 89.6367 45.9977C89.7355 46.2922 89.7891 46.6139 89.7938 46.941L89.7938 46.9394Z" fill="#6179CD"/>
        <path d="M26.5621 91.8772C26.5293 91.1366 26.6096 90.3946 26.7972 89.7036C26.9848 89.0126 27.2752 88.3893 27.6479 87.8776C28.0206 87.3659 28.4665 86.9783 28.9543 86.7421C29.4421 86.5059 29.9599 86.4268 30.4712 86.5104L54.8131 56.425L58.7391 65.9013L33.5773 92.4942C33.4231 93.7237 32.9615 94.829 32.2799 95.6005C31.5984 96.3719 30.7443 96.756 29.8795 96.6799C29.0147 96.6038 28.1993 96.0727 27.5879 95.1875C26.9764 94.3022 26.6114 93.1242 26.5621 91.8767V91.8772Z" fill="#FEB8B8"/>
        <path d="M70.941 35.6345C75.8497 35.6345 79.829 29.8956 79.829 22.8163C79.829 15.737 75.8497 9.99805 70.941 9.99805C66.0323 9.99805 62.053 15.737 62.053 22.8163C62.053 29.8956 66.0323 35.6345 70.941 35.6345Z" fill="#3F3D56"/>
        <path d="M49.9085 59.2158C49.9377 58.8914 50.015 58.5799 50.1352 58.3026C50.2555 58.0253 50.4158 57.7886 50.6052 57.6087L57.2207 51.3263C57.6463 50.7669 58.1442 50.334 58.6859 50.0523C59.2276 49.7706 59.8024 49.6455 60.3776 49.6843C60.9528 49.7231 61.5171 49.925 62.0382 50.2784C62.5592 50.6319 63.0269 51.1299 63.4145 51.7441C63.802 52.3583 64.1019 53.0766 64.2969 53.858C64.4919 54.6394 64.5782 55.4685 64.5509 56.298C64.5236 57.1276 64.3833 57.9412 64.1379 58.6925C63.8925 59.4437 63.5468 60.1179 63.1207 60.6764C63.1083 60.6927 63.0958 60.7089 63.0832 60.725L57.9992 69.5343C57.8541 69.7857 57.6732 69.989 57.4687 70.1305C57.2642 70.2719 57.041 70.3481 56.8142 70.3539C56.5875 70.3597 56.3625 70.295 56.1547 70.1641C55.9469 70.0332 55.761 69.8393 55.6099 69.5955L50.2967 61.0266C50.1454 60.7828 50.0323 60.4949 49.9653 60.1824C49.8982 59.8699 49.8787 59.5402 49.908 59.2158H49.9085Z" fill="#6179CD"/>
        <path d="M70.1001 42.5144C74.5444 42.5144 78.1472 37.3185 78.1472 30.9089C78.1472 24.4994 74.5444 19.3034 70.1001 19.3034C65.6558 19.3034 62.053 24.4994 62.053 30.9089C62.053 37.3185 65.6558 42.5144 70.1001 42.5144Z" fill="#FEB8B8"/>
        <path d="M75.5803 0C74.9086 1.38345 73.913 2.37043 72.7768 2.7793C70.8165 3.53642 72.7608 7.78463 72.7608 7.78463C72.7608 7.78463 72.0538 6.23979 73.0736 4.60374C74.0934 2.96768 75.7345 1.84927 75.5803 0Z" fill="#3F3D56"/>
        <path d="M72.4137 12.376C73.7817 12.376 74.8907 10.7766 74.8907 8.80373C74.8907 6.83085 73.7817 5.23151 72.4137 5.23151C71.0457 5.23151 69.9368 6.83085 69.9368 8.80373C69.9368 10.7766 71.0457 12.376 72.4137 12.376Z" fill="#3F3D56"/>
        <path d="M76.1149 11.7981C74.0955 10.6966 70.7333 10.1381 69.0037 10.5206L69.2407 8.02234C70.9037 9.26184 74.2506 9.84444 76.3519 9.2998L76.1149 11.7981Z" fill="#6179CD"/>
        <path d="M71.4494 12.2653C71.4494 12.2653 68.9186 18.336 63.0339 20.6086C57.1492 22.8812 62.9859 35.6347 62.9859 35.6347C62.9859 35.6347 60.8635 30.9971 63.9248 26.0857C66.9861 21.1743 71.9125 17.8165 71.4494 12.2653Z" fill="#3F3D56"/>
        <path d="M72.4085 12.3231C72.4085 12.3231 74.8396 20.6615 77.5087 21.4499C80.1778 22.2384 79.9753 35.4139 75.8014 37.3896C75.8014 37.3896 78.8455 29.6655 76.2434 24.4853C73.6413 19.305 71.9985 15.21 72.4085 12.3231Z" fill="#3F3D56"/>
        <path d="M135 104.461H0V104.821H135V104.461Z" fill="#E6E6E6"/>
        <path d="M23.5639 95.9084C23.5639 95.4574 23.5024 95.0108 23.3827 94.5942C23.2631 94.1775 23.0877 93.7989 22.8666 93.48C22.6455 93.1611 22.383 92.9081 22.0941 92.7355C21.8052 92.5629 21.4955 92.474 21.1828 92.474H21.1827V89.8322H12.0234V102.906C12.0234 103.362 12.1491 103.8 12.3729 104.122C12.5967 104.445 12.9002 104.626 13.2166 104.626H19.9895C20.3059 104.626 20.6094 104.445 20.8332 104.122C21.057 103.8 21.1827 103.362 21.1827 102.906V99.3428C21.8142 99.3427 22.4199 98.9809 22.8665 98.3368C23.313 97.6927 23.5639 96.8192 23.5639 95.9084ZM21.1827 98.0216L21.1827 93.7947C21.5713 93.7946 21.9441 94.0173 22.2189 94.4137C22.4937 94.81 22.6481 95.3476 22.6481 95.9081C22.6481 96.4686 22.4937 97.0062 22.2189 97.4026C21.9441 97.7989 21.5713 98.0216 21.1827 98.0216Z" fill="#E6E6E6"/>
        <path d="M121.448 92.0704C123.241 94.8459 123.334 98.9255 123.334 98.9255C123.334 98.9255 120.519 98.5049 118.725 95.7293C116.932 92.9538 116.839 88.8742 116.839 88.8742C116.839 88.8742 119.654 89.2949 121.448 92.0704Z" fill="#E6E6E6"/>
        <path d="M127.094 96.4028C125.169 98.9894 122.341 99.1231 122.341 99.1231C122.341 99.1231 122.632 95.0631 124.557 92.4765C126.481 89.8899 129.31 89.7562 129.31 89.7562C129.31 89.7562 129.018 93.8162 127.094 96.4028Z" fill="#E6E6E6"/>
        <path d="M126.616 104.641H119.537C119.401 104.641 119.268 104.586 119.153 104.482C119.038 104.378 118.945 104.23 118.886 104.054L117.345 99.4844C117.291 99.3252 117.266 99.1489 117.272 98.9721C117.279 98.7952 117.317 98.6237 117.382 98.4735C117.447 98.3234 117.537 98.1996 117.645 98.1139C117.752 98.0282 117.873 97.9833 117.996 97.9835H128.157C128.28 97.9833 128.4 98.0282 128.508 98.1139C128.615 98.1997 128.706 98.3234 128.771 98.4735C128.836 98.6237 128.874 98.7952 128.88 98.9721C128.887 99.1489 128.862 99.3252 128.808 99.4844L127.267 104.053C127.207 104.23 127.115 104.378 127 104.482C126.885 104.586 126.752 104.641 126.616 104.641L126.616 104.641Z" fill="#E5E5E5"/>
    </g>
    <defs>
        <clipPath id="clip0_306_207">
            <rect width="135" height="105" fill="white"/>
        </clipPath>
    </defs>
</svg>
