<svg width="54" height="46" viewBox="0 0 54 46" fill="none" xmlns="http://www.w3.org/2000/svg">
<path fill-rule="evenodd" clip-rule="evenodd" d="M47.0578 30.8304C47.0578 19.5909 38.1362 10.4795 27.1309 10.4795C16.1256 10.4795 7.20398 19.5909 7.20398 30.8304H47.0578Z" fill="#E43535"/>
<path fill-rule="evenodd" clip-rule="evenodd" d="M40.2742 30.8304C40.2742 23.3374 34.3898 17.2632 27.1309 17.2632C19.8721 17.2632 13.9877 23.3374 13.9877 30.8304H40.2742Z" fill="#ED9111"/>
<path d="M26.707 7.08772V2M39.2484 10.8871L42.2389 6.77108M47.1613 21.3325L52 19.7603M6.83871 22.139L2 20.5668M14.3276 11.3855L11.3372 7.26949" stroke="#ED9111" stroke-width="2.08964" stroke-linecap="round" stroke-linejoin="round"/>
<path d="M3.81226 30.8304H49.6017M12.2918 36.7661H42.8181M18.2275 43.5497H36.8824" stroke="#5EA7FF" stroke-width="4.17928" stroke-linecap="round" stroke-linejoin="round"/>
</svg>
