<svg width="184" height="210" viewBox="0 0 184 210" fill="none" xmlns="http://www.w3.org/2000/svg">
    <g clip-path="url(#clip0_15_509)">
        <path d="M130.13 57.9823C130.13 59.1792 130.086 60.366 129.998 61.5429C129.503 68.3303 127.551 74.9742 124.246 81.1243C124.221 81.1768 124.191 81.2256 124.165 81.2744C124.011 81.5595 123.853 81.8447 123.691 82.1261C122.708 83.8655 121.618 85.5564 120.425 87.1912C114.975 94.696 107.505 100.906 98.6755 105.272C89.846 109.638 79.9285 112.026 69.7994 112.224L70.4101 143.08L78.3736 139.396L79.7956 141.771L70.47 146.085L71.61 203.393L71.6227 204.158L65.4654 204.612L65.4782 204.593L67.4167 112.228C59.2638 112.125 51.2153 110.6 43.7386 107.742C36.2619 104.883 29.5059 100.748 23.8628 95.5768C23.4744 95.2241 23.0899 94.8602 22.7142 94.5C22.6971 94.485 22.6844 94.47 22.6715 94.4587C17.9698 89.9535 14.1674 84.7832 11.4244 79.1658C11.4842 79.2258 11.5482 79.2821 11.6081 79.3421C5.40879 66.6042 4.98834 52.2654 10.4329 39.2639C15.8774 26.2624 26.7746 15.5827 40.8915 9.41334C41.105 9.31955 41.3229 9.2295 41.5364 9.1357C55.5006 3.22557 71.4822 2.14114 86.3135 6.09735C101.145 10.0536 113.743 18.7616 121.611 30.4955C121.987 31.0508 122.35 31.6174 122.7 32.1877C127.588 40.1063 130.142 48.974 130.13 57.9823Z" fill="#E5E5E5"/>
        <path d="M84.6676 204.738C94.8239 204.738 103.057 197.504 103.057 188.58C103.057 179.656 94.8239 172.421 84.6676 172.421C74.5112 172.421 66.2778 179.656 66.2778 188.58C66.2778 197.504 74.5112 204.738 84.6676 204.738Z" fill="#2F2E41"/>
        <path d="M106.402 199.687H89.9272V204.596H106.402V199.687Z" fill="#2F2E41"/>
        <path d="M106.519 204.596C107.483 204.596 108.265 202.765 108.265 200.505C108.265 198.246 107.483 196.414 106.519 196.414C105.555 196.414 104.773 198.246 104.773 200.505C104.773 202.765 105.555 204.596 106.519 204.596Z" fill="#2F2E41"/>
        <path d="M102.559 199.312H86.0842V204.221H102.559V199.312Z" fill="#2F2E41"/>
        <path d="M102.676 204.221C103.64 204.221 104.422 202.389 104.422 200.13C104.422 197.871 103.64 196.039 102.676 196.039C101.712 196.039 100.93 197.871 100.93 200.13C100.93 202.389 101.712 204.221 102.676 204.221Z" fill="#2F2E41"/>
        <path d="M66.8288 173.553C65.3439 167.709 70.0904 161.805 77.4306 160.365C84.7707 158.925 91.9247 162.494 93.4096 168.337C94.8945 174.181 90.0299 176.336 82.6898 177.776C75.3497 179.216 68.3136 179.396 66.8288 173.553Z" fill="#6179CD"/>
        <path d="M91.7354 187.66C90.7736 187.677 89.83 187.428 89.0377 186.948C88.2455 186.469 87.6448 185.783 87.3203 184.987C87.3025 184.94 87.2953 184.891 87.2991 184.842C87.303 184.793 87.3178 184.745 87.3428 184.701C87.3677 184.656 87.4023 184.617 87.4446 184.585C87.4869 184.552 87.536 184.528 87.5892 184.512C87.6423 184.496 87.6985 184.49 87.7544 184.493C87.8104 184.497 87.865 184.51 87.9152 184.532C87.9654 184.554 88.0102 184.584 88.0471 184.621C88.0839 184.658 88.1121 184.701 88.1299 184.748C88.7765 186.439 90.9901 187.324 93.0637 186.719C94.0933 186.425 94.9486 185.784 95.4432 184.938C95.6554 184.573 95.783 184.175 95.8186 183.767C95.8541 183.359 95.797 182.949 95.6505 182.56C95.6326 182.513 95.6254 182.464 95.6292 182.415C95.6331 182.366 95.6479 182.318 95.6729 182.274C95.6979 182.229 95.7325 182.19 95.7747 182.158C95.817 182.125 95.8661 182.101 95.9193 182.085C95.9725 182.069 96.0286 182.063 96.0846 182.066C96.1405 182.07 96.1951 182.083 96.2453 182.105C96.2956 182.127 96.3404 182.157 96.3772 182.194C96.414 182.231 96.4422 182.274 96.46 182.321C96.6427 182.803 96.7144 183.313 96.671 183.819C96.6276 184.326 96.4699 184.82 96.2071 185.273C95.6105 186.298 94.5773 187.074 93.3325 187.431C92.8175 187.582 92.2782 187.659 91.7354 187.66Z" fill="white"/>
        <path d="M99.927 189.856C100.421 190.704 100.511 191.689 100.177 192.596C99.8437 193.502 99.1142 194.255 98.149 194.689C97.1839 195.122 96.0622 195.202 95.0307 194.909C93.9992 194.616 93.1424 193.975 92.6488 193.126L92.6451 193.12C91.6192 191.353 93.0368 190.257 95.0476 189.355C97.0585 188.454 98.9011 188.089 99.927 189.856Z" fill="white"/>
        <path d="M165.561 204.884H2.87475C2.76151 204.884 2.65289 204.844 2.57281 204.774C2.49273 204.704 2.44775 204.608 2.44775 204.509C2.44775 204.409 2.49273 204.314 2.57281 204.243C2.65289 204.173 2.76151 204.133 2.87475 204.133H165.561C165.675 204.133 165.783 204.173 165.863 204.243C165.943 204.314 165.988 204.409 165.988 204.509C165.988 204.608 165.943 204.704 165.863 204.774C165.783 204.844 165.675 204.884 165.561 204.884Z" fill="#3F3D56"/>
        <path d="M80.5534 209.971C82.2662 209.583 82.514 205.382 81.1069 200.588C79.6998 195.794 77.1707 192.222 75.4579 192.611C73.7452 192.999 73.4973 197.2 74.9044 201.994C76.3115 206.788 78.8406 210.359 80.5534 209.971Z" fill="#2F2E41"/>
        <path d="M111.432 169.317H104.436C104.369 169.317 104.304 169.299 104.249 169.266C104.194 169.233 104.152 169.186 104.128 169.132C104.104 169.077 104.099 169.017 104.115 168.96C104.13 168.903 104.165 168.852 104.214 168.812L110.577 163.749H104.698C104.611 163.749 104.527 163.719 104.465 163.664C104.403 163.61 104.368 163.536 104.368 163.459C104.368 163.382 104.403 163.309 104.465 163.254C104.527 163.2 104.611 163.169 104.698 163.169H111.432C111.499 163.169 111.564 163.187 111.619 163.22C111.674 163.253 111.716 163.3 111.74 163.355C111.764 163.41 111.769 163.469 111.753 163.526C111.738 163.583 111.703 163.635 111.654 163.674L105.292 168.737H111.432C111.52 168.737 111.604 168.768 111.666 168.822C111.728 168.877 111.762 168.95 111.762 169.027C111.762 169.104 111.728 169.178 111.666 169.232C111.604 169.287 111.52 169.317 111.432 169.317Z" fill="#CBCBCB"/>
        <path d="M120.341 160.329H113.344C113.278 160.329 113.213 160.312 113.158 160.279C113.103 160.245 113.06 160.198 113.037 160.144C113.013 160.089 113.008 160.029 113.023 159.972C113.039 159.915 113.073 159.864 113.123 159.825L119.485 154.761H113.607C113.519 154.761 113.435 154.731 113.373 154.677C113.312 154.622 113.277 154.548 113.277 154.472C113.277 154.395 113.312 154.321 113.373 154.267C113.435 154.212 113.519 154.182 113.607 154.182H120.341C120.408 154.182 120.473 154.199 120.528 154.232C120.583 154.266 120.625 154.313 120.649 154.367C120.673 154.422 120.678 154.482 120.662 154.539C120.647 154.596 120.612 154.647 120.563 154.686L114.2 159.75H120.341C120.429 159.75 120.513 159.78 120.574 159.834C120.636 159.889 120.671 159.963 120.671 160.039C120.671 160.116 120.636 160.19 120.574 160.244C120.513 160.299 120.429 160.329 120.341 160.329Z" fill="#CBCBCB"/>
        <path d="M116.382 150.472H109.385C109.318 150.472 109.253 150.454 109.198 150.421C109.143 150.388 109.101 150.341 109.077 150.286C109.053 150.232 109.048 150.172 109.064 150.115C109.079 150.058 109.114 150.006 109.163 149.967L115.526 144.904H109.647C109.56 144.904 109.476 144.873 109.414 144.819C109.352 144.765 109.317 144.691 109.317 144.614C109.317 144.537 109.352 144.463 109.414 144.409C109.476 144.355 109.56 144.324 109.647 144.324H116.382C116.448 144.324 116.513 144.342 116.568 144.375C116.623 144.408 116.666 144.455 116.69 144.51C116.713 144.564 116.718 144.624 116.703 144.681C116.687 144.738 116.653 144.79 116.603 144.829L110.241 149.892H116.382C116.469 149.892 116.553 149.923 116.615 149.977C116.677 150.031 116.712 150.105 116.712 150.182C116.712 150.259 116.677 150.333 116.615 150.387C116.553 150.441 116.469 150.472 116.382 150.472Z" fill="#CBCBCB"/>
        <path d="M164.873 66.5508L170.336 62.7113C166.092 62.2998 164.348 64.3337 163.634 65.9436C160.318 64.7338 156.709 66.3193 156.709 66.3193L167.64 69.8062C167.089 68.512 166.129 67.3827 164.873 66.5508Z" fill="#3F3D56"/>
        <path d="M8.1639 3.89332L13.6273 0.0537841C9.38301 -0.357662 7.63913 1.67623 6.92542 3.28608C3.60963 2.07628 0 3.66179 0 3.66179L10.9312 7.14876C10.3798 5.85451 9.41981 4.72523 8.1639 3.89332Z" fill="#3F3D56"/>
        <path d="M178.537 17.0251L184 13.1856C179.756 12.7741 178.012 14.808 177.298 16.4179C173.982 15.2081 170.373 16.7936 170.373 16.7936L181.304 20.2806C180.753 18.9863 179.793 17.857 178.537 17.0251Z" fill="#3F3D56"/>
    </g>
    <defs>
        <clipPath id="clip0_15_509">
            <rect width="184" height="210" fill="white"/>
        </clipPath>
    </defs>
</svg>
