<svg width="160" height="94" viewBox="0 0 160 94" fill="none" xmlns="http://www.w3.org/2000/svg">
    <g clip-path="url(#clip0_210_32)">
        <path d="M128.294 18.8228H116.577C116.336 18.8225 116.105 18.7106 115.935 18.5117C115.764 18.3127 115.668 18.043 115.668 17.7617V12.8096C115.668 10.7145 116.381 8.70521 117.65 7.22374C118.919 5.74226 120.641 4.90997 122.436 4.90997C124.231 4.90997 125.952 5.74226 127.221 7.22374C128.49 8.70521 129.203 10.7145 129.203 12.8096V17.7617C129.203 18.043 129.107 18.3127 128.937 18.5117C128.766 18.7106 128.535 18.8225 128.294 18.8228Z" fill="#2F2E41"/>
        <path d="M110.071 91.0018L107.698 90.1713L109.313 79.0952L112.815 80.3207L110.071 91.0018Z" fill="#A0616A"/>
        <path d="M109.986 93.8978L102.337 91.2203L102.366 91.1073C102.483 90.6509 102.676 90.226 102.934 89.8567C103.192 89.4874 103.51 89.181 103.869 88.955C104.229 88.7291 104.623 88.588 105.029 88.5397C105.435 88.4915 105.845 88.5371 106.236 88.674L110.908 90.3094L109.986 93.8978Z" fill="#2F2E41"/>
        <path d="M137.704 91.0954H135.227L134.049 79.9443L137.705 79.9446L137.704 91.0954Z" fill="#A0616A"/>
        <path d="M138.336 93.8979L130.35 93.8975V93.7796C130.35 93.3031 130.43 92.8313 130.586 92.3911C130.743 91.9509 130.972 91.5509 131.26 91.214C131.549 90.8771 131.892 90.6099 132.269 90.4275C132.646 90.2452 133.05 90.1514 133.458 90.1514L138.336 90.1516L138.336 93.8979Z" fill="#2F2E41"/>
        <path d="M122.708 18.7741C125.448 18.7741 127.669 16.181 127.669 12.9823C127.669 9.78361 125.448 7.19055 122.708 7.19055C119.967 7.19055 117.746 9.78361 117.746 12.9823C117.746 16.181 119.967 18.7741 122.708 18.7741Z" fill="#A0616A"/>
        <path d="M116.79 84.5293C116.7 84.5293 116.611 84.516 116.525 84.4898L106.581 81.472C106.437 81.428 106.302 81.3492 106.185 81.2406C106.068 81.132 105.972 80.996 105.903 80.8414C105.834 80.6868 105.794 80.5171 105.785 80.3431C105.776 80.1691 105.798 79.9949 105.85 79.8315C111.878 60.9051 116.815 44.5794 116.153 36.4903C115.218 34.292 114.74 31.8671 114.759 29.4128L114.83 21.2348C114.832 20.9957 114.88 20.7602 114.97 20.5456C115.06 20.3309 115.19 20.1425 115.351 19.9943C115.512 19.846 115.699 19.7416 115.898 19.6887C116.098 19.6358 116.305 19.6358 116.505 19.6887L127.63 22.6287L127.693 22.8736C128.581 26.358 128.492 30.0828 127.438 33.5036C133.996 40.4145 138.393 63.1029 140.929 80.9485C140.969 81.2309 140.924 81.5204 140.803 81.769C140.681 82.0177 140.491 82.2103 140.263 82.3151L140.232 82.324L132.432 83.2238C132.295 83.283 132.15 83.3088 132.004 83.2998C131.859 83.2909 131.717 83.2472 131.586 83.1716C131.456 83.096 131.34 82.99 131.246 82.8602C131.152 82.7304 131.081 82.5794 131.039 82.4167L124.338 56.6034L117.821 83.6216C117.756 83.8828 117.621 84.1126 117.435 84.2763C117.249 84.44 117.023 84.5288 116.79 84.5293Z" fill="#2F2E41"/>
        <path d="M127.424 13.1633H120.873C120.75 13.1631 120.631 13.1106 120.539 13.0155C120.447 12.9204 120.387 12.7893 120.372 12.6468L120.287 11.8548C120.279 11.7787 120.25 11.7077 120.204 11.6526C120.158 11.5975 120.099 11.5612 120.034 11.5493C119.969 11.5373 119.902 11.5504 119.844 11.5864C119.786 11.6225 119.74 11.6796 119.712 11.7491L119.283 12.8232C119.242 12.9247 119.177 13.0105 119.096 13.0707C119.015 13.1309 118.921 13.1631 118.825 13.1633H117.83C117.759 13.1633 117.69 13.1462 117.625 13.113C117.561 13.0797 117.503 13.0311 117.456 12.9703C117.409 12.9095 117.373 12.8379 117.351 12.7599C117.328 12.6819 117.32 12.5994 117.327 12.5176L117.719 7.73392C117.728 7.63157 117.759 7.53352 117.809 7.44936C117.86 7.3652 117.928 7.29781 118.008 7.25377C121.008 5.61899 124.05 5.62106 127.05 7.25999C127.127 7.30174 127.193 7.36499 127.242 7.444C127.292 7.52301 127.325 7.61529 127.336 7.7125L127.924 12.49C127.934 12.5736 127.929 12.6589 127.909 12.74C127.888 12.8211 127.853 12.8961 127.806 12.9599C127.758 13.0238 127.7 13.075 127.634 13.1101C127.568 13.1452 127.496 13.1634 127.424 13.1633Z" fill="#2F2E41"/>
        <path d="M112.643 86.0182L50.4376 79.9225C49.984 79.8775 49.5642 79.6242 49.2703 79.2183C48.9765 78.8124 48.8325 78.2871 48.8701 77.7575L51.2193 45.0947C51.2579 44.5652 51.4748 44.0751 51.8225 43.7321C52.1703 43.3891 52.6204 43.2211 53.0741 43.265L115.279 49.3606C115.733 49.4057 116.153 49.6589 116.447 50.0648C116.741 50.4707 116.885 50.9961 116.847 51.5257L114.498 84.1885C114.459 84.718 114.242 85.208 113.895 85.551C113.547 85.894 113.097 86.062 112.643 86.0182Z" fill="#CCCCCC"/>
        <path d="M111.788 83.8047L51.5961 77.9063C51.356 77.8825 51.1337 77.7484 50.9782 77.5335C50.8226 77.3186 50.7464 77.0405 50.7663 76.7601L52.9464 46.4471C52.9669 46.1668 53.0817 45.9074 53.2658 45.7258C53.4499 45.5442 53.6882 45.4553 53.9284 45.4785L114.121 51.3768C114.361 51.4007 114.583 51.5348 114.739 51.7496C114.894 51.9645 114.97 52.2427 114.951 52.523L112.77 82.836C112.75 83.1163 112.635 83.3758 112.451 83.5574C112.267 83.739 112.029 83.8279 111.788 83.8047Z" fill="white"/>
        <path d="M96.2837 72.4254C96.2876 72.4257 96.2915 72.426 96.2954 72.4261C98.2806 72.4731 100.207 71.6357 101.682 70.0843C103.157 68.5328 104.07 66.3838 104.236 64.0742C104.403 61.7646 103.809 59.4679 102.576 57.6511C101.343 55.8343 99.5636 54.6338 97.5994 54.2938C97.5752 54.2895 97.5504 54.2911 97.5267 54.2985C97.5029 54.3059 97.4808 54.3189 97.4616 54.3368C97.4424 54.3544 97.4266 54.3763 97.4151 54.4014C97.4036 54.4264 97.3967 54.4539 97.3948 54.4822L96.1205 72.2004C96.1166 72.2555 96.1316 72.3101 96.1623 72.3523C96.1929 72.3945 96.2366 72.4207 96.2837 72.4254Z" fill="#3F3D56"/>
        <path d="M91.1222 56.6921C91.1828 56.6981 91.2389 56.7319 91.2782 56.786L96.1193 63.4727C96.1388 63.4994 96.1536 63.5304 96.1627 63.5639C96.1719 63.5973 96.1752 63.6326 96.1726 63.6675L95.5629 72.1458C95.5604 72.1822 95.5515 72.2176 95.5367 72.2497C95.5219 72.2819 95.5016 72.3102 95.477 72.3327C95.4523 72.3556 95.4239 72.3723 95.3934 72.3818C95.363 72.3913 95.3312 72.3934 95.3001 72.388C93.8539 72.1376 92.4961 71.4215 91.3794 70.32C90.2628 69.2185 89.4313 67.7753 88.9786 66.1526C88.5259 64.5299 88.4699 62.792 88.8168 61.1342C89.1636 59.4764 89.8997 57.9643 90.9423 56.7679C90.9649 56.7421 90.9917 56.722 91.0212 56.7089C91.0507 56.6957 91.0822 56.6898 91.1137 56.6914L91.1222 56.6921Z" fill="#E6E6E6"/>
        <path d="M96.6271 54.1384C96.6854 54.1442 96.7397 54.1757 96.779 54.2264C96.8 54.2534 96.816 54.2853 96.826 54.3199C96.836 54.3545 96.8398 54.3912 96.837 54.4276L96.2869 62.0772C96.2831 62.1299 96.266 62.1801 96.2378 62.2214C96.2095 62.2627 96.1715 62.2934 96.1283 62.3094C96.0852 62.3255 96.0389 62.3263 95.9954 62.3117C95.9519 62.2971 95.9131 62.2677 95.8838 62.2274L91.6593 56.3924C91.6393 56.3647 91.6242 56.3325 91.6152 56.2977C91.6061 56.263 91.6032 56.2265 91.6066 56.1904C91.61 56.1543 91.6197 56.1194 91.635 56.0878C91.6503 56.0562 91.671 56.0286 91.6957 56.0066C93.1079 54.7554 94.8404 54.097 96.6129 54.1376C96.6176 54.1377 96.6224 54.138 96.6271 54.1384Z" fill="#6179CD"/>
        <path d="M92.9129 75.8359C92.8897 76.1587 92.785 76.4661 92.6121 76.7194C92.4392 76.9726 92.2059 77.1604 91.9416 77.2588C91.6773 77.3573 91.3939 77.3621 91.1273 77.2725C90.8606 77.183 90.6227 77.0032 90.4437 76.7559C90.2646 76.5085 90.1524 76.2048 90.1212 75.883C90.09 75.5612 90.1413 75.2358 90.2685 74.948C90.3958 74.6602 90.5933 74.423 90.836 74.2662C91.0788 74.1094 91.3559 74.0402 91.6324 74.0673C92.003 74.1041 92.3459 74.311 92.586 74.6426C92.826 74.9742 92.9436 75.4033 92.9129 75.8359Z" fill="#6179CD"/>
        <path d="M96.9068 76.2273C96.8836 76.55 96.7789 76.8574 96.606 77.1107C96.4331 77.364 96.1998 77.5517 95.9355 77.6502C95.6712 77.7487 95.3878 77.7534 95.1212 77.6639C94.8545 77.5744 94.6166 77.3946 94.4376 77.1472C94.2585 76.8999 94.1463 76.5961 94.1151 76.2743C94.0839 75.9525 94.1352 75.6272 94.2624 75.3394C94.3897 75.0516 94.5872 74.8143 94.8299 74.6576C95.0727 74.5008 95.3498 74.4316 95.6263 74.4587C95.9969 74.4955 96.3398 74.7024 96.5799 75.0339C96.8199 75.3655 96.9375 75.7947 96.9068 76.2273Z" fill="#3F3D56"/>
        <path d="M100.9 76.6187C100.877 76.9414 100.773 77.2488 100.6 77.5021C100.427 77.7553 100.193 77.9431 99.9291 78.0416C99.6648 78.14 99.3814 78.1448 99.1148 78.0553C98.8482 77.9657 98.6103 77.7859 98.4312 77.5386C98.2521 77.2912 98.1399 76.9875 98.1087 76.6657C98.0776 76.3439 98.1288 76.0185 98.2561 75.7307C98.3833 75.443 98.5808 75.2057 98.8236 75.0489C99.0664 74.8922 99.3435 74.8229 99.62 74.85C99.9905 74.8868 100.333 75.0937 100.574 75.4253C100.814 75.7569 100.931 76.186 100.9 76.6187Z" fill="#E6E6E6"/>
        <path d="M75.9647 56.7378L63.1391 55.481C63.0142 55.4688 62.8885 55.4854 62.7691 55.5299C62.6496 55.5744 62.5389 55.6459 62.4432 55.7403C62.3474 55.8348 62.2685 55.9503 62.211 56.0803C62.1536 56.2103 62.1186 56.3523 62.1081 56.4981C62.0976 56.6439 62.1118 56.7907 62.1499 56.9301C62.188 57.0695 62.2493 57.1988 62.3302 57.3105C62.4111 57.4223 62.5101 57.5143 62.6215 57.5814C62.7329 57.6485 62.8545 57.6894 62.9794 57.7016L75.805 58.9584C76.0573 58.9831 76.3076 58.8899 76.501 58.6991C76.6944 58.5084 76.8149 58.2358 76.8361 57.9413C76.8572 57.6469 76.7773 57.3546 76.6139 57.1289C76.4505 56.9032 76.217 56.7625 75.9647 56.7378Z" fill="#E6E6E6"/>
        <path d="M75.5285 62.8051L62.7029 61.5483C62.4852 61.5265 62.2677 61.5926 62.0868 61.7355C61.9058 61.8784 61.7724 62.0895 61.7088 62.3335C61.6452 62.5775 61.6553 62.8395 61.7373 63.0759C61.8194 63.3122 61.9685 63.5085 62.1597 63.632C62.2776 63.7092 62.4084 63.7559 62.5432 63.7689L75.3688 65.0257C75.4937 65.038 75.6194 65.0214 75.7389 64.9769C75.8583 64.9324 75.969 64.8609 76.0648 64.7664C76.1605 64.672 76.2394 64.5565 76.2969 64.4264C76.3544 64.2964 76.3893 64.1544 76.3998 64.0086C76.4103 63.8628 76.3961 63.716 76.358 63.5767C76.3199 63.4373 76.2586 63.308 76.1777 63.1962C76.0968 63.0845 75.9978 62.9924 75.8864 62.9253C75.775 62.8582 75.6534 62.8174 75.5285 62.8051Z" fill="#E6E6E6"/>
        <path d="M75.0922 68.8724L62.2666 67.6156C62.1417 67.6034 62.0159 67.62 61.8965 67.6644C61.7771 67.7089 61.6663 67.7805 61.5706 67.8749C61.4749 67.9693 61.396 68.0849 61.3385 68.2149C61.281 68.3449 61.246 68.4869 61.2355 68.6327C61.225 68.7785 61.2393 68.9253 61.2774 69.0647C61.3155 69.2041 61.3767 69.3333 61.4577 69.4451C61.5386 69.5569 61.6376 69.6489 61.7489 69.716C61.8603 69.7831 61.982 69.824 62.1069 69.8362L74.9325 71.093C75.0574 71.1053 75.1831 71.0887 75.3025 71.0442C75.422 70.9997 75.5327 70.9282 75.6284 70.8337C75.7242 70.7393 75.8031 70.6237 75.8606 70.4937C75.918 70.3637 75.953 70.2217 75.9635 70.0759C75.974 69.9301 75.9598 69.7833 75.9217 69.6439C75.8835 69.5045 75.8223 69.3753 75.7414 69.2635C75.6605 69.1518 75.5615 69.0597 75.4501 68.9926C75.3387 68.9255 75.2171 68.8847 75.0922 68.8724Z" fill="#E6E6E6"/>
        <path d="M72.3149 56.3802L63.1391 55.481C63.0142 55.4688 62.8885 55.4854 62.7691 55.5299C62.6496 55.5744 62.5389 55.6459 62.4431 55.7403C62.3474 55.8348 62.2685 55.9503 62.211 56.0803C62.1536 56.2103 62.1186 56.3523 62.1081 56.4981C62.0976 56.6439 62.1118 56.7907 62.1499 56.9301C62.188 57.0695 62.2493 57.1988 62.3302 57.3105C62.4111 57.4223 62.5101 57.5143 62.6215 57.5814C62.7329 57.6485 62.8545 57.6894 62.9794 57.7016L71.964 58.582C72.152 58.5129 72.3204 58.3854 72.4511 58.2131C72.5818 58.0409 72.6699 57.8303 72.7059 57.6041C72.742 57.3779 72.7246 57.1445 72.6557 56.9289C72.5868 56.7133 72.469 56.5236 72.3149 56.3802Z" fill="#6179CD"/>
        <path d="M67.641 62.0322L62.7029 61.5483C62.4852 61.5265 62.2677 61.5926 62.0868 61.7355C61.9058 61.8784 61.7724 62.0895 61.7088 62.3335C61.6452 62.5775 61.6553 62.8395 61.7373 63.0759C61.8194 63.3122 61.9685 63.5085 62.1597 63.632L66.6953 64.0764C66.9825 64.1044 67.2675 63.9982 67.4876 63.781C67.7078 63.5639 67.845 63.2536 67.8692 62.9183C67.8937 62.5997 67.812 62.2823 67.641 62.0322Z" fill="#6179CD"/>
        <path d="M74.1339 68.7785L62.2666 67.6156C62.1417 67.6034 62.0159 67.62 61.8965 67.6644C61.7771 67.7089 61.6663 67.7805 61.5706 67.8749C61.4749 67.9693 61.396 68.0849 61.3385 68.2149C61.281 68.3449 61.246 68.4869 61.2355 68.6327C61.225 68.7785 61.2393 68.9253 61.2774 69.0647C61.3155 69.2041 61.3767 69.3333 61.4577 69.4451C61.5386 69.5569 61.6376 69.6489 61.7489 69.716C61.8603 69.7831 61.982 69.824 62.1069 69.8362L74.0506 71.0066C74.2272 70.9072 74.3774 70.7539 74.4852 70.5628C74.593 70.3718 74.6545 70.1502 74.663 69.9216C74.6716 69.693 74.6269 69.466 74.5337 69.2648C74.4405 69.0635 74.3023 68.8954 74.1339 68.7785Z" fill="#6179CD"/>
        <path d="M107.271 50.8978C107.58 50.814 107.87 50.6522 108.119 50.4237C108.369 50.1951 108.573 49.9055 108.716 49.5751C108.859 49.2447 108.939 48.8817 108.949 48.5116C108.959 48.1414 108.9 47.7731 108.775 47.4327L115.769 26.015L112.199 24.9887L105.774 46.1509C105.298 46.4338 104.927 46.9107 104.732 47.4912C104.537 48.0718 104.531 48.7156 104.716 49.3007C104.9 49.8858 105.263 50.3716 105.733 50.6659C106.204 50.9603 106.751 51.0428 107.271 50.8978Z" fill="#A0616A"/>
        <path d="M116.105 30.3326C115.948 30.3327 115.792 30.2923 115.65 30.2145L111.198 27.7825C111.059 27.7061 110.934 27.5954 110.835 27.4579C110.735 27.3205 110.661 27.1596 110.62 26.9861C110.578 26.8126 110.569 26.6307 110.593 26.4527C110.616 26.2747 110.673 26.1047 110.758 25.9545L113.463 21.1858C113.618 20.8015 113.836 20.457 114.106 20.1722C114.376 19.8874 114.691 19.668 115.034 19.5268C115.556 19.3067 116.121 19.2719 116.66 19.427C117.198 19.582 117.685 19.9198 118.059 20.3978C118.432 20.8757 118.677 21.4723 118.76 22.1121C118.843 22.7519 118.763 23.4063 118.527 23.9924L117.134 29.4384C117.068 29.6969 116.932 29.9234 116.746 30.0845C116.561 30.2456 116.336 30.3326 116.105 30.3326Z" fill="#2F2E41"/>
        <path d="M113.233 51.2632C113.55 51.2509 113.861 51.1576 114.144 50.9899C114.427 50.8222 114.675 50.5842 114.87 50.2925C115.066 50.0009 115.204 49.6627 115.276 49.3019C115.347 48.9411 115.35 48.5663 115.284 48.2041L126.637 29.3163L123.244 27.1941L112.552 46.2675C112.038 46.4373 111.596 46.8213 111.308 47.3467C111.02 47.8721 110.908 48.5024 110.992 49.1182C111.076 49.7339 111.35 50.2924 111.763 50.6877C112.176 51.0831 112.699 51.2878 113.233 51.2632Z" fill="#A0616A"/>
        <path d="M125.523 33.111C125.294 33.111 125.072 33.0258 124.888 32.868L120.925 29.4748C120.8 29.3682 120.697 29.2316 120.622 29.0743C120.547 28.9169 120.502 28.7425 120.489 28.5629C120.477 28.3833 120.498 28.2027 120.551 28.0335C120.604 27.8643 120.688 27.7104 120.797 27.5823L124.242 23.5162C124.458 23.1742 124.729 22.8856 125.041 22.6671C125.353 22.4487 125.699 22.3048 126.059 22.2439C126.607 22.1459 127.168 22.2399 127.67 22.5138C128.173 22.7877 128.594 23.2293 128.881 23.7828C129.169 24.3362 129.309 24.9767 129.285 25.6233C129.26 26.2699 129.072 26.8935 128.744 27.4154L126.473 32.4425C126.382 32.6442 126.245 32.813 126.077 32.9308C125.91 33.0486 125.718 33.1109 125.523 33.111Z" fill="#2F2E41"/>
        <path d="M53.6503 46.7335C53.3711 46.6153 53.1174 46.4272 52.9073 46.1822C52.6971 45.9373 52.5356 45.6415 52.4339 45.3158C52.3323 44.99 52.2931 44.6423 52.319 44.2969C52.345 43.9516 52.4355 43.6171 52.5842 43.317L47.8652 36.9399L51.5853 36.3747L55.4962 42.5172C55.9115 42.8422 56.2103 43.3337 56.3359 43.8986C56.4615 44.4636 56.4052 45.0627 56.1776 45.5824C55.9501 46.1021 55.5671 46.5063 55.1013 46.7185C54.6355 46.9307 54.1192 46.936 53.6503 46.7335Z" fill="#FFB8B8"/>
        <path d="M27.0516 48.081C26.8558 47.8204 26.7113 47.5128 26.6284 47.1799C26.5454 46.847 26.526 46.497 26.5716 46.1544C26.6171 45.8119 26.7264 45.4851 26.8917 45.1972C27.0571 44.9092 27.2746 44.6671 27.5288 44.4879L26.0288 36.2452L29.5214 37.8437L30.4104 45.4261C30.64 45.9445 30.6987 46.5433 30.5754 47.1089C30.4521 47.6746 30.1553 48.1677 29.7412 48.495C29.3272 48.8222 28.8247 48.9609 28.329 48.8846C27.8333 48.8083 27.3788 48.5224 27.0516 48.081Z" fill="#FFB8B8"/>
        <path d="M43.9533 91.0393L46.4301 91.039L47.6082 79.888L43.9529 79.8882L43.9533 91.0393Z" fill="#FFB8B8"/>
        <path d="M43.3215 90.0953L48.1991 90.0951H48.1993C48.6075 90.0951 49.0117 90.1889 49.3888 90.3712C49.7659 90.5536 50.1086 90.8208 50.3972 91.1577C50.6859 91.4947 50.9148 91.8946 51.071 92.3348C51.2273 92.7751 51.3077 93.2469 51.3077 93.7233V93.8412L43.3217 93.8416L43.3215 90.0953Z" fill="#2F2E41"/>
        <path d="M31.8322 91.0393L34.309 91.039L35.4871 79.888L31.8318 79.8882L31.8322 91.0393Z" fill="#FFB8B8"/>
        <path d="M31.2004 90.0953L36.078 90.0951H36.0782C36.4864 90.0951 36.8906 90.1889 37.2677 90.3712C37.6448 90.5536 37.9875 90.8208 38.2761 91.1577C38.5648 91.4947 38.7937 91.8946 38.95 92.3348C39.1062 92.7751 39.1866 93.2469 39.1866 93.7233V93.8412L31.2006 93.8416L31.2004 90.0953Z" fill="#2F2E41"/>
        <path d="M43.6593 85.2172C43.4375 85.2161 43.2235 85.1208 43.0574 84.9491C42.8913 84.7774 42.7843 84.5411 42.7565 84.2841L40.2235 59.9178C40.2149 59.8341 40.181 59.7569 40.1279 59.6998C40.0748 59.6428 40.006 59.6098 39.9339 59.6066C39.8618 59.6035 39.7911 59.6306 39.7346 59.6829C39.678 59.7352 39.6393 59.8093 39.6254 59.892L35.5981 83.8054C35.5571 84.0465 35.4458 84.2635 35.2832 84.4197C35.1206 84.5758 34.9166 84.6614 34.706 84.6618H31.7497C31.6288 84.6618 31.5092 84.6337 31.3978 84.5791C31.2864 84.5245 31.1854 84.4446 31.1008 84.3439C31.0161 84.2432 30.9496 84.1239 30.9049 83.9928C30.8603 83.8618 30.8384 83.7216 30.8407 83.5806L31.4324 46.7464L31.4807 46.7128C35.7933 43.7154 40.8766 43.5192 47.0213 46.1138L47.0858 46.141L48.0736 83.9601C48.0801 84.2394 47.9923 84.5106 47.8291 84.715C47.6659 84.9194 47.4404 85.0408 47.2013 85.0528L43.6953 85.2165C43.6833 85.217 43.6712 85.2172 43.6593 85.2172Z" fill="#2F2E41"/>
        <path d="M40.2843 12.9748C43.0247 12.9748 45.2462 10.3818 45.2462 7.18305C45.2462 3.98435 43.0247 1.3913 40.2843 1.3913C37.544 1.3913 35.3225 3.98435 35.3225 7.18305C35.3225 10.3818 37.544 12.9748 40.2843 12.9748Z" fill="#FFB8B8"/>
        <path d="M51.7683 42.1934C51.6419 42.2144 51.5131 42.2041 51.3903 42.1632C51.2675 42.1222 51.1534 42.0516 51.0556 41.9558L45.9677 36.9721C44.2279 35.2684 43.0775 32.8851 42.7305 30.2654L41.5861 21.6344C41.446 21.216 41.378 20.7694 41.3859 20.3202C41.3938 19.8711 41.4774 19.4281 41.6321 19.0167C41.7867 18.6053 42.0093 18.2335 42.2871 17.9226C42.565 17.6117 42.8926 17.3678 43.2512 17.2048C43.6099 17.0418 43.9925 16.9629 44.3773 16.9726C44.7621 16.9823 45.1415 17.0805 45.4938 17.2615C45.846 17.4425 46.1643 17.7028 46.4303 18.0275C46.6963 18.3521 46.9049 18.7348 47.0441 19.1537L49.4655 32.7154L53.3306 38.8389C53.441 39.0147 53.5026 39.2259 53.5069 39.444C53.5112 39.662 53.458 39.8763 53.3546 40.0579L52.3958 41.7325C52.2929 41.912 52.1456 42.0507 51.9735 42.13C51.9075 42.1605 51.8386 42.1818 51.7683 42.1934Z" fill="#6179CD"/>
        <path d="M27.0734 42.6338C26.9666 42.5521 26.8757 42.445 26.8067 42.3196C26.7377 42.1941 26.6921 42.0531 26.6728 41.9058L25.6747 34.2409C25.3332 31.6203 25.8187 28.9441 27.0411 26.7101L31.0676 19.3487C31.1993 18.9266 31.401 18.5389 31.6611 18.2078C31.9213 17.8767 32.2348 17.6087 32.5838 17.4191C32.9327 17.2296 33.3103 17.1222 33.6948 17.1031C34.0794 17.084 34.4634 17.1535 34.8249 17.3078C35.1864 17.462 35.5183 17.6979 35.8016 18.002C36.0849 18.3061 36.3141 18.6724 36.4761 19.08C36.638 19.4875 36.7296 19.9283 36.7455 20.3772C36.7614 20.8261 36.7013 21.2743 36.5687 21.696L30.7098 33.7433L30.1448 41.3207C30.1282 41.5379 30.0549 41.7439 29.9347 41.9109C29.8145 42.0778 29.6533 42.1977 29.4729 42.2542L27.8053 42.7718C27.6264 42.8272 27.4374 42.8177 27.2633 42.7445C27.1964 42.7165 27.1327 42.6793 27.0734 42.6338Z" fill="#6179CD"/>
        <path d="M45.7116 17.4685C44.8594 16.3775 43.8082 15.5239 42.6355 14.9705C41.4629 14.417 40.1988 14.178 38.9365 14.271C38.8535 14.277 38.7709 14.2837 38.6886 14.2912C37.4921 14.4017 36.3296 14.809 35.2789 15.4859C34.2281 16.1629 33.3133 17.0939 32.5956 18.2167C31.8659 19.3552 31.3528 20.6624 31.0907 22.0509C30.8285 23.4394 30.8233 24.8773 31.0754 26.2683C32.0375 31.5844 31.794 37.1016 30.369 42.2742L29.038 47.0987C28.9953 47.2533 28.9836 47.4172 29.0037 47.5779C29.0239 47.7386 29.0755 47.8918 29.1543 48.0256C29.2332 48.1593 29.3374 48.2702 29.4588 48.3496C29.5802 48.4289 29.7156 48.4747 29.8545 48.4834L36.6596 48.9104L38.401 45.3993V49.0197L46.6719 49.5388C46.6884 49.5399 46.7048 49.5404 46.721 49.5404C46.8465 49.5403 46.9707 49.5099 47.0856 49.4511C47.2006 49.3923 47.3039 49.3064 47.389 49.1987C47.4741 49.091 47.5391 48.9639 47.5801 48.8254C47.621 48.6869 47.637 48.5401 47.6269 48.394L46.692 34.8628L47.8646 25.6726C48.0544 24.2042 47.9595 22.7048 47.5869 21.2849C47.2143 19.865 46.5734 18.5609 45.7116 17.4685Z" fill="#6179CD"/>
        <path d="M36.836 12.712C37.2954 13.0206 39.1112 13.2252 39.2406 12.6252L39.2433 12.612C39.3334 12.1724 39.2586 11.7134 39.2328 11.2625C39.2069 10.8115 39.2447 10.3161 39.5079 9.98451C39.9984 9.36641 40.871 9.69407 41.5803 9.53779C41.9957 9.42955 42.3632 9.1483 42.6138 8.74669C42.8644 8.34507 42.9811 7.85061 42.9419 7.35585C42.9318 7.26212 42.916 7.16828 42.8982 7.07449C42.8539 6.83688 42.8573 6.59049 42.9082 6.35468C42.9592 6.11887 43.0562 5.90005 43.1918 5.71541C43.3274 5.53076 43.4978 5.38532 43.6897 5.29048C43.8815 5.19565 44.0896 5.15401 44.2976 5.16884C45.0143 5.21668 45.7881 5.47018 46.3811 4.85047C46.8397 4.37125 46.9516 3.12378 46.7501 2.44488C46.4115 1.30396 44.2423 0.70666 43.2952 0.378312C42.1238 -0.0167439 40.8918 -0.102152 39.6886 0.128296C38.4854 0.358743 37.3413 0.899257 36.3396 1.71054C35.7413 2.20273 35.1827 2.82117 34.9277 3.62196C34.6727 4.42275 34.7957 5.43306 35.3707 5.96169C34.925 6.51247 34.6112 7.19029 34.4606 7.92724C34.3101 8.66419 34.3281 9.43438 34.5129 10.1606C34.7968 11.2287 36.1521 12.2528 36.836 12.712Z" fill="#2F2E41"/>
        <path d="M159.798 94H0.20202C0.148441 94 0.0970563 93.9752 0.0591702 93.9309C0.0212841 93.8867 0 93.8267 0 93.7642C0 93.7017 0.0212841 93.6417 0.0591702 93.5974C0.0970563 93.5532 0.148441 93.5284 0.20202 93.5284H159.798C159.852 93.5284 159.903 93.5532 159.941 93.5974C159.979 93.6417 160 93.7017 160 93.7642C160 93.8267 159.979 93.8867 159.941 93.9309C159.903 93.9752 159.852 94 159.798 94Z" fill="#CCCCCC"/>
        <path d="M144.386 51.6237C143.934 51.6662 143.481 51.5512 143.085 51.2933C142.688 51.0353 142.367 50.6459 142.16 50.1744C141.953 49.7029 141.871 49.1703 141.923 48.6442C141.976 48.118 142.161 47.6219 142.455 47.2184C142.749 46.815 143.139 46.5224 143.575 46.3777C144.012 46.233 144.475 46.2426 144.907 46.4054C145.339 46.5681 145.72 46.8767 146.001 47.2921C146.283 47.7075 146.453 48.211 146.489 48.739C146.538 49.447 146.344 50.1487 145.95 50.6897C145.555 51.2307 144.993 51.5667 144.386 51.6237ZM144.358 51.213C144.741 51.177 145.106 51.0093 145.407 50.7312C145.708 50.4531 145.932 50.0769 146.05 49.6504C146.168 49.2239 146.175 48.7661 146.07 48.3349C145.965 47.9038 145.753 47.5186 145.46 47.2281C145.168 46.9377 144.808 46.7549 144.427 46.7031C144.045 46.6512 143.659 46.7325 143.318 46.9368C142.976 47.141 142.694 47.4589 142.507 47.8504C142.32 48.2419 142.236 48.6893 142.267 49.136C142.287 49.4327 142.358 49.7217 142.474 49.9866C142.59 50.2516 142.75 50.4872 142.944 50.68C143.138 50.8729 143.363 51.0192 143.606 51.1107C143.848 51.2021 144.104 51.2369 144.358 51.213Z" fill="#F2F2F2"/>
        <path d="M152.287 44.7515C153.067 44.7515 153.699 44.0136 153.699 43.1034C153.699 42.1931 153.067 41.4552 152.287 41.4552C151.507 41.4552 150.875 42.1931 150.875 43.1034C150.875 44.0136 151.507 44.7515 152.287 44.7515Z" fill="#F2F2F2"/>
        <path d="M159.228 38.791C159.637 38.791 159.969 38.4034 159.969 37.9253C159.969 37.4471 159.637 37.0595 159.228 37.0595C158.818 37.0595 158.486 37.4471 158.486 37.9253C158.486 38.4034 158.818 38.791 159.228 38.791Z" fill="#F2F2F2"/>
        <path d="M81.079 32.3124C81.4614 32.0272 81.9076 31.8807 82.3614 31.8915C82.8151 31.9023 83.2558 32.0699 83.6279 32.3731C84 32.6764 84.2868 33.1016 84.4518 33.595C84.6169 34.0884 84.6529 34.6279 84.5553 35.1452C84.4577 35.6625 84.2309 36.1344 83.9035 36.5013C83.5761 36.8681 83.1629 37.1134 82.7161 37.2061C82.2693 37.2988 81.809 37.2348 81.3934 37.0222C80.9778 36.8095 80.6255 36.4578 80.3811 36.0114C80.0541 35.4126 79.9439 34.6869 80.0748 33.9935C80.2056 33.3 80.5667 32.6954 81.079 32.3124ZM83.36 36.4788C83.6836 36.2374 83.9385 35.8895 84.0927 35.479C84.2468 35.0685 84.2933 34.6138 84.226 34.1725C84.1588 33.7312 83.981 33.3231 83.7151 32.9998C83.4492 32.6764 83.1071 32.4524 82.7321 32.356C82.3571 32.2596 81.966 32.2952 81.6083 32.4582C81.2506 32.6212 80.9424 32.9044 80.7226 33.272C80.5028 33.6395 80.3813 34.0748 80.3735 34.5229C80.3656 34.9711 80.4718 35.4118 80.6786 35.7895C80.9562 36.2954 81.3945 36.6521 81.8972 36.7813C82.3999 36.9106 82.9259 36.8018 83.36 36.4788Z" fill="#F2F2F2"/>
        <path d="M81.4213 25.1627C82.2011 25.1627 82.8333 24.4247 82.8333 23.5145C82.8333 22.6042 82.2011 21.8663 81.4213 21.8663C80.6414 21.8663 80.0093 22.6042 80.0093 23.5145C80.0093 24.4247 80.6414 25.1627 81.4213 25.1627Z" fill="#F2F2F2"/>
        <path d="M80.7605 14.7965C81.1701 14.7965 81.5022 14.4089 81.5022 13.9307C81.5022 13.4526 81.1701 13.0649 80.7605 13.0649C80.3509 13.0649 80.0188 13.4526 80.0188 13.9307C80.0188 14.4089 80.3509 14.7965 80.7605 14.7965Z" fill="#F2F2F2"/>
        <path d="M18.6 62.6565C18.3447 62.2186 18.2063 61.7022 18.2025 61.1725C18.1986 60.6428 18.3294 60.1236 18.5783 59.6807C18.8272 59.2378 19.183 58.891 19.6008 58.6841C20.0186 58.4772 20.4795 58.4196 20.9253 58.5186C21.3712 58.6175 21.7819 58.8685 22.1055 59.2398C22.4291 59.6112 22.6511 60.0862 22.7434 60.6049C22.8357 61.1235 22.7942 61.6624 22.6241 62.1535C22.454 62.6446 22.163 63.0658 21.7878 63.3639C21.2845 63.7627 20.6662 63.9122 20.0686 63.7796C19.471 63.647 18.9428 63.2431 18.6 62.6565ZM22.1019 59.8747C21.8859 59.5041 21.5806 59.2167 21.2246 59.0487C20.8686 58.8807 20.4779 58.8397 20.1019 58.9309C19.726 59.0221 19.3816 59.2413 19.1124 59.5609C18.8432 59.8806 18.6612 60.2862 18.5895 60.7265C18.5178 61.1668 18.5596 61.6221 18.7096 62.0347C18.8595 62.4474 19.1109 62.7988 19.432 63.0447C19.7531 63.2905 20.1294 63.4197 20.5134 63.4159C20.8974 63.412 21.2717 63.2754 21.5892 63.0232C22.0144 62.6846 22.3072 62.163 22.4033 61.5727C22.4994 60.9824 22.391 60.3718 22.1019 59.8747Z" fill="#F2F2F2"/>
        <path d="M11.056 64.1599C11.8358 64.1599 12.468 63.4219 12.468 62.5117C12.468 61.6014 11.8358 60.8635 11.056 60.8635C10.2762 60.8635 9.64404 61.6014 9.64404 62.5117C9.64404 63.4219 10.2762 64.1599 11.056 64.1599Z" fill="#F2F2F2"/>
        <path d="M2.86817 64.4254C3.2778 64.4254 3.60987 64.0378 3.60987 63.5597C3.60987 63.0815 3.2778 62.6939 2.86817 62.6939C2.45854 62.6939 2.12646 63.0815 2.12646 63.5597C2.12646 64.0378 2.45854 64.4254 2.86817 64.4254Z" fill="#F2F2F2"/>
    </g>
    <defs>
        <clipPath id="clip0_210_32">
            <rect width="160" height="94" fill="white"/>
        </clipPath>
    </defs>
</svg>
