<svg width="36" height="36" viewBox="0 0 36 36" fill="none" xmlns="http://www.w3.org/2000/svg">
    <circle cx="18" cy="18" r="18" fill="#90A1DC"/>
    <path d="M27.7318 20.0234L25.8477 18.9818C26.0379 17.9996 26.0379 16.9919 25.8477 16.0097L27.7318 14.9682C27.9485 14.8496 28.0458 14.604 27.975 14.3754C27.4841 12.8682 26.6482 11.5049 25.5558 10.3702C25.3877 10.1966 25.1135 10.1543 24.9012 10.2728L23.0172 11.3143C22.2255 10.6623 21.3144 10.1585 20.3281 9.82825V7.74943C20.3281 7.51234 20.1557 7.30488 19.9124 7.25407C18.2893 6.90689 16.6263 6.92383 15.0828 7.25407C14.8395 7.30488 14.6671 7.51234 14.6671 7.74943V9.83249C13.6852 10.167 12.7741 10.6708 11.978 11.3186L10.0984 10.277C9.88167 10.1585 9.61189 10.1966 9.44382 10.3744C8.35141 11.5049 7.51552 12.8682 7.0246 14.3796C6.94941 14.6083 7.05113 14.8538 7.26785 14.9724L9.15192 16.0139C8.96175 16.9962 8.96175 18.0038 9.15192 18.9861L7.26785 20.0276C7.05113 20.1462 6.95383 20.3917 7.0246 20.6203C7.51552 22.1276 8.35141 23.4909 9.44382 24.6256C9.61189 24.7992 9.8861 24.8415 10.0984 24.723L11.9825 23.6814C12.7741 24.3334 13.6852 24.8373 14.6715 25.1675V27.2506C14.6715 27.4877 14.844 27.6951 15.0872 27.7459C16.7104 28.0931 18.3733 28.0762 19.9168 27.7459C20.1601 27.6951 20.3326 27.4877 20.3326 27.2506V25.1675C21.3144 24.833 22.2255 24.3292 23.0216 23.6814L24.9057 24.723C25.1224 24.8415 25.3922 24.8034 25.5602 24.6256C26.6526 23.4951 27.4885 22.1318 27.9794 20.6203C28.0458 20.3875 27.9485 20.1419 27.7318 20.0234ZM17.4976 20.8828C15.5472 20.8828 13.9594 19.3629 13.9594 17.4958C13.9594 15.6286 15.5472 14.1087 17.4976 14.1087C19.448 14.1087 21.0358 15.6286 21.0358 17.4958C21.0358 19.3629 19.448 20.8828 17.4976 20.8828Z" fill="white"/>
</svg>
