<svg width="40" height="40" viewBox="0 0 40 40" fill="none" xmlns="http://www.w3.org/2000/svg">
    <circle cx="20" cy="20" r="20" fill="#90A1DC"/>
    <path d="M31.7042 9.42203C31.4612 8.8795 30.7667 8.8578 30.4759 9.36995C29.1304 11.7094 26.7216 13.1677 23.9698 13.1677H20.4976C15.8969 13.1677 12.1643 16.9003 12.1643 21.501C12.1643 21.8048 12.199 22.0956 12.2294 22.3908C14.9985 20.4073 18.9959 18.7232 24.6643 18.7232C25.0462 18.7232 25.3587 19.0357 25.3587 19.4177C25.3587 19.7996 25.0462 20.1121 24.6643 20.1121C13.7528 20.1121 9.1261 26.8005 8.10179 29.3135C7.81533 30.021 8.15388 30.8283 8.86134 31.1191C9.57315 31.4142 10.3804 31.0713 10.6756 30.3682C10.7407 30.212 11.5827 28.2892 13.7962 26.4359C15.2025 28.3413 17.8761 30.1599 21.3874 29.7866C28.2016 29.2918 32.9976 23.1807 32.9976 15.6981C32.9976 13.5193 32.5289 11.2623 31.7042 9.42203Z" fill="black"/>
</svg>
