<svg width="300" height="300" viewBox="0 0 300 300" fill="none" xmlns="http://www.w3.org/2000/svg">
    <circle cx="150" cy="150" r="150" fill="#90A1DC"/>
    <path d="M112.275 136.08L111.475 140.48H99.8745L98.5945 147.8H107.475L106.715 152.12H97.7945L95.7145 164H90.0745L95.0345 136.08H112.275ZM126.725 136.08C129.579 136.08 131.739 136.733 133.205 138.04C134.672 139.32 135.405 141 135.405 143.08C135.405 143.587 135.365 144.107 135.285 144.64C134.965 146.453 134.139 148.107 132.805 149.6C131.499 151.067 129.739 152.093 127.525 152.68L132.205 164H125.685L121.525 153.12H118.845L116.925 164H111.285L116.245 136.08H126.725ZM129.525 144.76C129.579 144.28 129.605 143.96 129.605 143.8C129.605 142.787 129.285 142 128.645 141.44C128.005 140.88 127.032 140.6 125.725 140.6H121.045L119.565 148.96H124.245C125.739 148.96 126.925 148.587 127.805 147.84C128.712 147.093 129.285 146.067 129.525 144.76ZM146.71 140.44L145.43 147.68H154.83L154.07 152H144.67L143.35 159.56H153.95L153.15 164H136.91L141.87 136.04H158.07L157.31 140.44H146.71ZM168.8 164.28C166 164.28 163.693 163.653 161.88 162.4C160.093 161.12 159.2 159.333 159.2 157.04C159.2 156.8 159.226 156.44 159.28 155.96H165C164.893 157.08 165.186 158 165.88 158.72C166.6 159.44 167.64 159.8 169 159.8C170.36 159.8 171.426 159.52 172.2 158.96C173 158.373 173.4 157.547 173.4 156.48C173.4 155.493 172.986 154.707 172.16 154.12C171.36 153.533 170.093 152.88 168.36 152.16C166.76 151.493 165.453 150.88 164.44 150.32C163.453 149.76 162.6 148.987 161.88 148C161.186 146.987 160.84 145.72 160.84 144.2C160.84 142.467 161.28 140.96 162.16 139.68C163.066 138.4 164.293 137.413 165.84 136.72C167.413 136.027 169.2 135.68 171.2 135.68C173.173 135.68 174.88 136.013 176.32 136.68C177.786 137.32 178.88 138.24 179.6 139.44C180.346 140.64 180.666 142.04 180.56 143.64H174.6L174.64 143.2C174.64 142.32 174.306 141.6 173.64 141.04C173 140.48 172.093 140.2 170.92 140.2C169.666 140.2 168.653 140.493 167.88 141.08C167.106 141.667 166.72 142.467 166.72 143.48C166.72 144.147 166.933 144.733 167.36 145.24C167.813 145.72 168.36 146.147 169 146.52C169.64 146.867 170.56 147.32 171.76 147.88C173.333 148.573 174.626 149.227 175.64 149.84C176.653 150.453 177.52 151.267 178.24 152.28C178.96 153.293 179.32 154.533 179.32 156C179.32 157.6 178.88 159.027 178 160.28C177.146 161.533 175.92 162.52 174.32 163.24C172.746 163.933 170.906 164.28 168.8 164.28ZM210.734 136.08L205.814 164H200.174L202.294 152.04H190.374L188.254 164H182.614L187.574 136.08H193.174L191.134 147.64H203.094L205.134 136.08H210.734Z" fill="white"/>
</svg>
